<?xml version="1.0" standalone="no"?>
<!DOCTYPE svg PUBLIC "-//W3C//DTD SVG 20010904//EN"
 "http://www.w3.org/TR/2001/REC-SVG-20010904/DTD/svg10.dtd">
<svg version="1.0" xmlns="http://www.w3.org/2000/svg"
 width="1500.000000pt" height="1500.000000pt" viewBox="0 0 1500.000000 1500.000000"
 preserveAspectRatio="xMidYMid meet">
<metadata>
Created by potrace 1.14, written by Peter Selinger 2001-2017
</metadata>
<g transform="translate(0.000000,1500.000000) scale(0.100000,-0.100000)"
fill="#000000" stroke="none">
<path d="M13493 14408 c-44 -16 -100 -67 -434 -402 -334 -333 -998 -1003
-1921 -1938 -145 -148 -266 -268 -268 -268 -3 0 -5 30 -4 67 1 180 -75 326
-204 392 -54 28 -93 35 -188 35 -68 0 -90 -5 -145 -31 -35 -16 -83 -49 -107
-73 -23 -24 -44 -41 -45 -39 -2 2 -24 36 -49 74 -86 135 -204 267 -313 351
-180 140 -414 171 -595 81 -25 -12 -46 -25 -48 -29 -2 -5 -9 -8 -16 -8 -18 0
-127 -108 -164 -162 -83 -121 -123 -280 -99 -398 24 -119 73 -205 177 -313 47
-48 83 -88 80 -88 -3 -1 -9 -1 -14 0 -74 15 -415 19 -545 8 -92 -8 -309 -51
-466 -92 -55 -15 -104 -27 -110 -28 -19 -5 -140 -49 -182 -68 -24 -11 -47 -19
-52 -19 -5 0 -22 -6 -38 -14 -15 -8 -99 -49 -185 -91 -255 -124 -465 -276
-703 -511 -100 -98 -133 -134 -215 -230 -25 -28 -152 -208 -177 -249 -78 -129
-233 -433 -233 -457 0 -8 -4 -18 -9 -23 -16 -17 -98 -264 -130 -390 -37 -147
-57 -250 -66 -341 -4 -38 -10 -99 -14 -136 -12 -111 -4 -403 13 -518 2 -14 7
-47 11 -73 7 -52 8 -61 26 -147 20 -103 50 -215 85 -323 20 -60 33 -111 31
-113 -2 -3 -13 -6 -23 -8 -11 -3 -41 -10 -69 -16 -27 -6 -59 -13 -70 -16 -11
-2 -85 -20 -165 -40 -80 -19 -152 -37 -160 -39 -45 -10 -1029 -263 -1260 -324
-41 -11 -154 -40 -250 -65 -96 -25 -238 -61 -315 -81 -133 -35 -151 -40 -193
-49 -182 -41 -309 -157 -363 -331 -33 -105 -13 -273 57 -482 46 -139 241 -468
358 -607 110 -129 286 -295 428 -404 37 -29 70 -52 72 -52 3 0 24 -13 48 -29
129 -86 469 -230 605 -256 70 -13 203 -34 253 -40 30 -4 63 -9 72 -10 9 -2 59
-6 110 -10 51 -3 103 -8 115 -11 l23 -4 -23 -27 c-194 -228 -504 -521 -757
-714 -190 -145 -657 -449 -689 -449 -5 0 -16 6 -23 13 -73 72 -287 215 -412
276 -154 75 -278 110 -516 144 -321 46 -752 -47 -1039 -225 -129 -81 -321
-253 -437 -393 -156 -187 -278 -462 -309 -695 -3 -25 -8 -56 -10 -70 -24 -135
-24 -474 0 -590 3 -14 7 -37 10 -52 8 -43 61 -181 106 -276 90 -189 208 -324
383 -439 126 -83 168 -98 277 -98 90 0 99 2 174 39 97 48 153 103 230 226 101
163 194 264 315 343 56 37 181 97 202 97 4 0 19 5 35 12 33 13 25 11 136 39
48 12 90 19 93 17 7 -7 -30 -103 -75 -195 -55 -111 -152 -229 -261 -315 -109
-86 -150 -109 -367 -210 -106 -49 -181 -198 -181 -354 1 -166 89 -336 263
-509 190 -189 388 -295 661 -355 122 -26 139 -29 239 -37 140 -11 262 -7 355
12 14 3 52 10 85 16 86 15 257 67 351 106 297 124 572 365 751 658 88 145 178
396 207 582 2 16 8 48 12 73 8 55 8 242 0 331 l-7 66 63 -5 c104 -8 884 -8
1018 1 122 8 157 11 270 23 30 3 69 7 85 8 55 6 140 17 195 26 30 5 73 12 95
15 22 3 63 10 90 15 28 5 66 12 85 15 69 11 387 77 490 101 58 14 114 27 125
29 28 4 205 51 305 81 199 59 489 163 635 229 28 12 84 37 125 55 41 18 157
74 257 125 l182 91 88 -54 c147 -89 326 -171 443 -203 45 -13 187 -46 220 -52
45 -8 174 -27 245 -36 74 -9 390 -7 490 4 245 26 617 160 821 297 188 126 268
346 199 545 -21 59 -90 183 -180 323 -23 36 -72 112 -107 170 -36 58 -132 213
-213 345 -82 132 -170 275 -197 318 l-48 78 57 107 c237 451 268 518 347 756
25 76 48 148 51 160 3 11 34 134 70 271 66 254 125 533 150 705 22 156 41 319
50 430 3 36 8 88 10 115 20 226 28 435 29 764 l1 315 205 1 c184 2 212 4 270
24 232 81 410 282 452 512 55 292 -92 582 -361 719 -101 50 -126 54 -421 55
l-275 1 -23 84 c-13 47 -25 95 -28 108 -6 29 -64 188 -102 279 -38 90 -97 200
-178 328 -60 97 -62 101 -45 120 17 19 92 128 205 295 28 41 53 77 56 80 3 3
23 32 45 65 22 33 42 62 45 65 3 3 28 39 56 80 167 245 217 319 303 445 108
158 174 255 346 511 66 99 122 181 126 184 3 3 16 23 29 45 13 22 27 42 30 45
3 3 82 120 176 260 501 750 854 1276 861 1285 4 6 33 48 63 95 30 47 57 87 60
90 18 16 94 146 105 178 14 41 13 113 -3 153 -17 43 -64 91 -109 111 -59 26
-112 28 -170 6z"/>
</g>
</svg>
