<svg xmlns="http://www.w3.org/2000/svg" xmlns:xlink="http://www.w3.org/1999/xlink" xml:space="preserve" id="Layer_1" x="0" y="0" version="1.1" viewBox="0 0 815 644">
  <path fill="#13202f" d="M0 0h815v644H0z"/>
  <path fill="#dddbdc" d="M815 29.1v-1h-34.3V0h-1v28.1h-52.1V0h-1v28.1h-52.1V0h-1v28.1h-52.1V0h-1v28.1h-52.1V0h-1v28.1h-52.1V0h-1v28.1h-52.1V0h-1v28.1H409V0h-1v28.1h-52.1V0h-1v28.1h-52.1V0h-1v28.1h-52.1V0h-1v28.1h-52.1V0h-1v28.1h-52.1V0h-1v28.1H90.4V0h-1v28.1H37.3V0h-1v28.1H0v1h36.3v52.1H0v1h36.3v52.1H0v1h36.3v52.1H0v1h36.3v52.1H0v1h36.3v52.1H0v1h36.3v52.1H0v1h36.3v52.1H0v1h36.3v52.1H0v1h36.3V506H0v1h36.3v52.1H0v1h36.3v52.1H0v1h36.3V644h1v-30.8h52.1V644h1v-30.8h52.1V644h1v-30.8h52.1V644h1v-30.8h52.1V644h1v-30.8h52.1V644h1v-30.8h52.1V644h1v-30.8H408V644h1v-30.8h52.1V644h1v-30.8h52.1V644h1v-30.8h52.1V644h1v-30.8h52.1V644h1v-30.8h52.1V644h1v-30.8h52.1V644h1v-30.8h52.1V644h1v-30.8H815v-1h-34.3v-52.1H815v-1h-34.3V507H815v-1h-34.3v-52.1H815v-1h-34.3v-52.1H815v-1h-34.3v-52.1H815v-1h-34.3v-52.1H815v-1h-34.3v-52.1H815v-1h-34.3v-52.1H815v-1h-34.3v-52.1H815v-1h-34.3V82.2H815v-1h-34.3V29.1H815zm-88.4 0v52.1h-52.1V29.1h52.1zM355.9 294.6H408v52.1h-52.1v-52.1zm-1 52.1h-52.1v-52.1h52.1v52.1zm54.1-52.1h52.1v52.1H409v-52.1zm53.1 0h52.1v52.1h-52.1v-52.1zm0-1v-52.1h52.1v52.1h-52.1zm-1 0H409v-52.1h52.1v52.1zm-53.1 0h-52.1v-52.1H408v52.1zm-53.1 0h-52.1v-52.1h52.1v52.1zm-53.1 0h-52.1v-52.1h52.1v52.1zm0 1v52.1h-52.1v-52.1h52.1zm0 53.1v52.1h-52.1v-52.1h52.1zm1 0h52.1v52.1h-52.1v-52.1zm53.1 0H408v52.1h-52.1v-52.1zm53.1 0h52.1v52.1H409v-52.1zm53.1 0h52.1v52.1h-52.1v-52.1zm53.1 0h52.1v52.1h-52.1v-52.1zm0-1v-52.1h52.1v52.1h-52.1zm0-53.1v-52.1h52.1v52.1h-52.1zm0-53.1v-52.1h52.1v52.1h-52.1zm-1 0h-52.1v-52.1h52.1v52.1zm-53.1 0H409v-52.1h52.1v52.1zm-53.1 0h-52.1v-52.1H408v52.1zm-53.1 0h-52.1v-52.1h52.1v52.1zm-53.1 0h-52.1v-52.1h52.1v52.1zm-53.1 0h-52.1v-52.1h52.1v52.1zm0 1v52.1h-52.1v-52.1h52.1zm0 53.1v52.1h-52.1v-52.1h52.1zm0 53.1v52.1h-52.1v-52.1h52.1zm0 53.1v52.1h-52.1v-52.1h52.1zm1 0h52.1v52.1h-52.1v-52.1zm53.1 0h52.1v52.1h-52.1v-52.1zm53.1 0H408v52.1h-52.1v-52.1zm53.1 0h52.1v52.1H409v-52.1zm53.1 0h52.1v52.1h-52.1v-52.1zm53.1 0h52.1v52.1h-52.1v-52.1zm53.1 0h52.1v52.1h-52.1v-52.1zm0-1v-52.1h52.1v52.1h-52.1zm0-53.1v-52.1h52.1v52.1h-52.1zm0-53.1v-52.1h52.1v52.1h-52.1zm0-53.1v-52.1h52.1v52.1h-52.1zm0-53.1v-52.1h52.1v52.1h-52.1zm-1 0h-52.1v-52.1h52.1v52.1zm-53.1 0h-52.1v-52.1h52.1v52.1zm-53.1 0H409v-52.1h52.1v52.1zm-53.1 0h-52.1v-52.1H408v52.1zm-53.1 0h-52.1v-52.1h52.1v52.1zm-53.1 0h-52.1v-52.1h52.1v52.1zm-53.1 0h-52.1v-52.1h52.1v52.1zm-53.1 0h-52.1v-52.1h52.1v52.1zm0 1v52.1h-52.1v-52.1h52.1zm0 53.1v52.1h-52.1v-52.1h52.1zm0 53.1v52.1h-52.1v-52.1h52.1zm0 53.1v52.1h-52.1v-52.1h52.1zm0 53.1v52.1h-52.1v-52.1h52.1zm0 53.1V506h-52.1v-52.1h52.1zm1 0h52.1V506h-52.1v-52.1zm53.1 0h52.1V506h-52.1v-52.1zm53.1 0h52.1V506h-52.1v-52.1zm53.1 0H408V506h-52.1v-52.1zm53.1 0h52.1V506H409v-52.1zm53.1 0h52.1V506h-52.1v-52.1zm53.1 0h52.1V506h-52.1v-52.1zm53.1 0h52.1V506h-52.1v-52.1zm53.1 0h52.1V506h-52.1v-52.1zm0-1v-52.1h52.1v52.1h-52.1zm0-53.1v-52.1h52.1v52.1h-52.1zm0-53.1v-52.1h52.1v52.1h-52.1zm0-53.1v-52.1h52.1v52.1h-52.1zm0-53.1v-52.1h52.1v52.1h-52.1zm0-53.1v-52.1h52.1v52.1h-52.1zm0-53.1V82.2h52.1v52.1h-52.1zm-1 0h-52.1V82.2h52.1v52.1zm-53.1 0h-52.1V82.2h52.1v52.1zm-53.1 0h-52.1V82.2h52.1v52.1zm-53.1 0H409V82.2h52.1v52.1zm-53.1 0h-52.1V82.2H408v52.1zm-53.1 0h-52.1V82.2h52.1v52.1zm-53.1 0h-52.1V82.2h52.1v52.1zm-53.1 0h-52.1V82.2h52.1v52.1zm-53.1 0h-52.1V82.2h52.1v52.1zm-53.1 0H90.4V82.2h52.1v52.1zm0 1v52.1H90.4v-52.1h52.1zm0 53.1v52.1H90.4v-52.1h52.1zm0 53.1v52.1H90.4v-52.1h52.1zm0 53.1v52.1H90.4v-52.1h52.1zm0 53.1v52.1H90.4v-52.1h52.1zm0 53.1v52.1H90.4v-52.1h52.1zm0 53.1V506H90.4v-52.1h52.1zm0 53.1v52.1H90.4V507h52.1zm1 0h52.1v52.1h-52.1V507zm53.1 0h52.1v52.1h-52.1V507zm53.1 0h52.1v52.1h-52.1V507zm53.1 0h52.1v52.1h-52.1V507zm53.1 0H408v52.1h-52.1V507zm53.1 0h52.1v52.1H409V507zm53.1 0h52.1v52.1h-52.1V507zm53.1 0h52.1v52.1h-52.1V507zm53.1 0h52.1v52.1h-52.1V507zm53.1 0h52.1v52.1h-52.1V507zm53.1 0h52.1v52.1h-52.1V507zm0-1v-52.1h52.1V506h-52.1zm0-53.1v-52.1h52.1v52.1h-52.1zm0-53.1v-52.1h52.1v52.1h-52.1zm0-53.1v-52.1h52.1v52.1h-52.1zm0-53.1v-52.1h52.1v52.1h-52.1zm0-53.1v-52.1h52.1v52.1h-52.1zm0-53.1v-52.1h52.1v52.1h-52.1zm0-53.1V82.2h52.1v52.1h-52.1zm-1-105.2v52.1h-52.1V29.1h52.1zm-53.1 0v52.1h-52.1V29.1h52.1zm-53.1 0v52.1h-52.1V29.1h52.1zm-53.1 0v52.1h-52.1V29.1h52.1zm-53.1 0v52.1H409V29.1h52.1zm-53.1 0v52.1h-52.1V29.1H408zm-53.1 0v52.1h-52.1V29.1h52.1zm-53.1 0v52.1h-52.1V29.1h52.1zm-53.1 0v52.1h-52.1V29.1h52.1zm-53.1 0v52.1h-52.1V29.1h52.1zm-53.1 0v52.1H90.4V29.1h52.1zm-105.2 0h52.1v52.1H37.3V29.1zm0 53.1h52.1v52.1H37.3V82.2zm0 53.1h52.1v52.1H37.3v-52.1zm0 53.1h52.1v52.1H37.3v-52.1zm0 53.1h52.1v52.1H37.3v-52.1zm0 53.1h52.1v52.1H37.3v-52.1zm0 53.1h52.1v52.1H37.3v-52.1zm0 53.1h52.1v52.1H37.3v-52.1zm0 53.1h52.1V506H37.3v-52.1zm0 53.1h52.1v52.1H37.3V507zm0 105.2v-52.1h52.1v52.1H37.3zm53.1 0v-52.1h52.1v52.1H90.4zm53.1 0v-52.1h52.1v52.1h-52.1zm53.1 0v-52.1h52.1v52.1h-52.1zm53.1 0v-52.1h52.1v52.1h-52.1zm53.1 0v-52.1h52.1v52.1h-52.1zm53.1 0v-52.1H408v52.1h-52.1zm53.1 0v-52.1h52.1v52.1H409zm53.1 0v-52.1h52.1v52.1h-52.1zm53.1 0v-52.1h52.1v52.1h-52.1zm53.1 0v-52.1h52.1v52.1h-52.1zm53.1 0v-52.1h52.1v52.1h-52.1zm53.1 0v-52.1h52.1v52.1h-52.1zm105.2 0h-52.1v-52.1h52.1v52.1zm0-53.1h-52.1V507h52.1v52.1zm0-53.1h-52.1v-52.1h52.1V506zm0-53.1h-52.1v-52.1h52.1v52.1zm0-53.1h-52.1v-52.1h52.1v52.1zm0-53.1h-52.1v-52.1h52.1v52.1zm0-53.1h-52.1v-52.1h52.1v52.1zm0-53.1h-52.1v-52.1h52.1v52.1zm0-53.1h-52.1v-52.1h52.1v52.1zm0-53.1h-52.1V82.2h52.1v52.1zm0-53.1h-52.1V29.1h52.1v52.1z" opacity=".2"/>
  <g opacity=".4">
    <defs>
      <path id="SVGID_1_" d="M0 0h815v644H0z"/>
    </defs>
    <clipPath id="SVGID_2_">
      <use xlink:href="#SVGID_1_" overflow="visible"/>
    </clipPath>
    <path d="M815 644V102.7H126.8c-9.1 0-16.4 7.4-16.4 16.4V644H815z" fill="#294058" clip-path="url(#SVGID_2_)"/>
  </g>
  <path d="M815 644V102.7H126.8c-9.1 0-16.4 7.4-16.4 16.4V644H815z" fill="#294058"/>
  <path fill="#92b5f5" d="M180.2 144.5c-5 0-9.1-4.1-9.1-9.1s4.1-9.1 9.1-9.1 9.1 4.1 9.1 9.1c-.1 5-4.1 9.1-9.1 9.1zm0-17.2c-4.5 0-8.1 3.6-8.1 8.1s3.6 8.1 8.1 8.1 8.1-3.6 8.1-8.1c-.1-4.5-3.7-8.1-8.1-8.1zm29.8 17.2c-5 0-9.1-4.1-9.1-9.1s4.1-9.1 9.1-9.1 9.1 4.1 9.1 9.1-4.1 9.1-9.1 9.1zm0-17.2c-4.5 0-8.1 3.6-8.1 8.1s3.6 8.1 8.1 8.1 8.1-3.6 8.1-8.1-3.6-8.1-8.1-8.1zm29.8 17.2c-5 0-9.1-4.1-9.1-9.1s4.1-9.1 9.1-9.1 9.1 4.1 9.1 9.1-4.1 9.1-9.1 9.1zm0-17.2c-4.5 0-8.1 3.6-8.1 8.1s3.6 8.1 8.1 8.1 8.1-3.6 8.1-8.1-3.6-8.1-8.1-8.1z"/>
  <path fill="#92b5f5" d="M110.3 164H815v1H110.3z" opacity=".2"/>
  <path fill="#fff" d="M185.1 265.3c0-.5-.1-1-.3-1.4-.2-.4-.5-.8-.9-1.1-.4-.3-.8-.6-1.3-.8-.5-.2-1-.5-1.6-.7-.7-.2-1.4-.5-2-.8s-1.2-.7-1.6-1.1-.8-.9-1.1-1.5c-.3-.6-.4-1.2-.4-2 0-.7.1-1.4.4-1.9.2-.6.6-1.1 1-1.5s.9-.7 1.5-1c.6-.2 1.2-.4 1.9-.5v-2.6h1.3v2.6c.7.1 1.4.2 1.9.5s1.1.7 1.5 1.2c.4.5.7 1.1.9 1.7s.3 1.4.3 2.2H185c0-.6-.1-1.2-.3-1.8s-.4-1-.8-1.4-.7-.7-1.2-.9c-.5-.2-1-.3-1.6-.3-.5 0-1 .1-1.5.2-.5.2-.9.4-1.2.7s-.6.7-.8 1.1c-.2.4-.3.9-.3 1.5s.1 1.1.3 1.5c.2.4.5.8.9 1.1.4.3.8.6 1.3.8.5.2 1.1.5 1.7.7.7.2 1.4.5 2 .8.6.3 1.2.6 1.6 1.1.5.4.8.9 1.1 1.5.3.6.4 1.2.4 2 0 .7-.1 1.4-.4 1.9-.2.6-.6 1.1-1 1.5-.4.4-.9.7-1.5 1-.6.2-1.2.4-1.9.4v2.4h-1.3V270c-.7-.1-1.4-.2-2-.4-.6-.2-1.2-.6-1.7-1-.5-.5-.9-1-1.2-1.7-.3-.7-.4-1.5-.5-2.4h1.5c0 .7.1 1.4.4 1.9.2.5.6 1 1 1.3.4.3.9.6 1.4.8s1.1.2 1.6.2 1.1-.1 1.5-.2c.5-.2.9-.4 1.3-.7s.7-.7.9-1.1c.3-.3.4-.8.4-1.4zm19.7-2.4c0-.9.1-1.8.3-2.6.2-.8.6-1.6 1-2.2.5-.6 1-1.2 1.7-1.5.7-.4 1.5-.6 2.4-.6.9 0 1.7.2 2.3.6.7.4 1.3.9 1.7 1.6v-7.6h1.5v19.5h-1.4l-.1-1.8c-.5.7-1.1 1.2-1.8 1.5-.7.4-1.5.5-2.3.5-.9 0-1.7-.2-2.4-.6-.7-.4-1.2-.9-1.7-1.6-.5-.6-.8-1.4-1-2.2-.2-.8-.3-1.7-.3-2.6v-.4zm1.6.3c0 .7.1 1.4.2 2 .1.7.4 1.3.7 1.8.3.5.8 1 1.3 1.3s1.2.5 2 .5c.4 0 .8-.1 1.2-.2.4-.1.7-.3 1.1-.5.3-.2.6-.5.9-.8.3-.3.5-.6.7-1v-6.7c-.2-.4-.4-.7-.6-1-.2-.3-.5-.6-.9-.8-.3-.2-.7-.4-1.1-.5-.4-.1-.8-.2-1.2-.2-.8 0-1.4.2-2 .5-.5.3-1 .8-1.3 1.3-.3.5-.6 1.1-.7 1.8-.1.7-.2 1.4-.2 2v.5zm23.3 6.7c-.1-.3-.2-.6-.2-.9-.1-.3-.1-.7-.1-1l-.9.9c-.3.3-.7.5-1.1.7-.4.2-.9.4-1.3.5-.5.1-1 .2-1.5.2-.6 0-1.2-.1-1.8-.3-.6-.2-1-.4-1.4-.8-.4-.3-.7-.7-1-1.2-.2-.5-.3-1-.3-1.6 0-.8.2-1.5.5-2s.8-1 1.4-1.3c.6-.3 1.3-.6 2.1-.8.8-.2 1.6-.2 2.5-.2h3v-1.6c0-.5-.1-1-.3-1.4-.2-.4-.5-.7-.8-1-.3-.3-.7-.5-1.2-.6-.5-.1-1-.2-1.5-.2s-1 .1-1.4.2-.8.3-1.2.5-.6.5-.8.9c-.2.3-.3.7-.3 1.2h-1.5c0-.6.2-1.1.5-1.6s.7-.9 1.1-1.3c.5-.4 1-.6 1.7-.8.6-.2 1.3-.3 2-.3s1.4.1 2.1.3c.6.2 1.2.5 1.7.8s.8.8 1.1 1.4c.3.6.4 1.2.4 2v6.7c0 .5 0 .9.1 1.4.1.5.2.9.3 1.3v.2h-1.9zm-5-1.1c.5 0 1-.1 1.5-.2s.9-.3 1.3-.6c.4-.2.8-.5 1.1-.9.3-.3.6-.7.7-1.1v-3h-2.8c-.7 0-1.3.1-1.9.2-.6.1-1.2.3-1.6.5-.5.2-.9.5-1.1.9-.3.4-.4.9-.4 1.5 0 .4.1.8.3 1.1.2.3.4.6.7.8.3.2.6.4 1 .5.3.2.7.3 1.2.3zm19.6-12.9c.4 0 .8 0 1.1.1.4 0 .7.1 1 .2l-.2 1.5c-.4-.1-.7-.1-1.1-.2s-.7-.1-1.1-.1c-1.3 0-2.4.3-3.3.9-.9.6-1.5 1.5-1.9 2.8v8.8h-1.6v-13.7h1.5l.1 2.4v.3c.6-.9 1.3-1.6 2.2-2.1 1-.6 2.1-.9 3.3-.9zm10.9-3.3v3.5h5.1v1.2h-5.1v8.6c0 .5.1 1 .2 1.3.2.4.4.6.6.8.3.2.6.4.9.5.4.1.8.1 1.2.1.4 0 .9 0 1.3-.1s.8-.1 1.1-.2l.2 1.2c-.4.1-.8.3-1.3.3-.5.1-1.1.1-1.6.1-.6 0-1.2-.1-1.7-.2s-1-.4-1.3-.7c-.4-.3-.7-.7-.9-1.3-.2-.5-.3-1.2-.3-1.9v-8.6h-3.8V256h3.8v-3.5h1.6zm30.4 16.3c.5 0 1-.1 1.5-.2s.9-.4 1.2-.6.6-.6.9-1c.2-.4.4-.8.4-1.3h1.5c0 .7-.2 1.3-.5 1.8s-.7 1-1.2 1.4c-.5.4-1.1.7-1.7.9-.6.2-1.3.3-2 .3-1 0-1.9-.2-2.6-.6-.7-.4-1.4-.9-1.9-1.5s-.9-1.4-1.1-2.2c-.2-.8-.4-1.7-.4-2.6v-.5c0-.9.1-1.7.4-2.6.2-.8.6-1.6 1.1-2.2s1.1-1.1 1.9-1.5c.7-.4 1.6-.6 2.6-.6.8 0 1.5.1 2.1.4.6.2 1.2.6 1.7 1s.9 1 1.1 1.5c.3.6.4 1.3.5 2h-1.5c0-.5-.1-1-.4-1.4-.2-.4-.5-.8-.8-1.1-.3-.3-.8-.6-1.2-.7s-1-.3-1.5-.3c-.8 0-1.5.2-2 .5-.6.3-1 .7-1.4 1.3s-.6 1.1-.8 1.8c-.2.7-.2 1.3-.2 2v.5c0 .7.1 1.4.2 2s.4 1.3.8 1.8.8.9 1.4 1.3c.4.2 1.1.4 1.9.4zm8.6-6.1c0-.9.2-1.8.4-2.7s.7-1.6 1.2-2.2c.5-.6 1.2-1.1 1.9-1.5.8-.4 1.6-.6 2.6-.6s1.8.2 2.6.6c.8.4 1.4.9 1.9 1.5s.9 1.4 1.2 2.2.4 1.7.4 2.7v.4c0 .9-.2 1.8-.4 2.7-.3.8-.7 1.6-1.2 2.2-.5.6-1.2 1.1-1.9 1.5-.8.4-1.6.6-2.6.6s-1.8-.2-2.6-.6c-.8-.4-1.4-.9-1.9-1.5s-.9-1.4-1.2-2.2-.4-1.7-.4-2.7v-.4zm1.5.4c0 .7.1 1.4.3 2.1s.5 1.3.9 1.8.9.9 1.4 1.2 1.2.5 2 .5c.7 0 1.4-.2 2-.5s1-.7 1.4-1.2c.4-.5.7-1.1.9-1.8s.3-1.4.3-2.1v-.4c0-.7-.1-1.4-.3-2.1s-.5-1.3-.9-1.8-.9-.9-1.4-1.3c-.6-.3-1.2-.5-2-.5-.7 0-1.4.2-2 .5-.6.3-1 .7-1.4 1.3-.4.5-.7 1.1-.9 1.8s-.3 1.4-.3 2.1v.4zm14.3-7v1.5c.3-.5.7-1 1.1-1.3.5-.3 1.1-.5 1.8-.5.4 0 .7 0 1 .1.3.1.6.2.8.4l.6.6c.2.2.3.5.4.7.3-.5.7-.9 1.2-1.3.5-.3 1.1-.5 1.9-.5.6 0 1.1.1 1.5.3.4.2.7.5 1 .8.2.3.4.7.5 1.2.1.5.2.9.2 1.4v10.2h-1.4v-10.2c0-.3 0-.6-.1-.9-.1-.3-.2-.6-.3-.8-.1-.2-.4-.4-.6-.6s-.6-.2-1-.2-.8.1-1.1.2-.5.3-.7.5-.3.4-.4.7c-.1.2-.2.5-.2.8v10.5h-1.4v-10.3c0-.3 0-.6-.1-.9-.1-.3-.2-.5-.3-.7-.1-.2-.4-.4-.6-.5-.3-.1-.6-.2-1-.2s-.8.1-1 .2c-.3.1-.5.3-.7.5-.2.2-.3.4-.5.7-.1.3-.2.5-.3.8v10.5h-1.4v-13.7h1.1zm26 7c0 .9-.1 1.8-.3 2.6-.2.8-.5 1.6-1 2.2-.4.6-1 1.2-1.7 1.6-.7.4-1.5.6-2.4.6-.9 0-1.6-.2-2.3-.5s-1.3-.8-1.8-1.4v7H325v-19h1.4l.1 1.9c.5-.7 1.1-1.2 1.8-1.6.7-.4 1.5-.6 2.4-.6.9 0 1.8.2 2.4.6.7.4 1.2.9 1.7 1.5.4.6.8 1.4 1 2.2.2.8.3 1.7.3 2.6v.3zm-1.5-.3c0-.7-.1-1.4-.2-2s-.4-1.3-.7-1.8c-.3-.5-.8-1-1.3-1.3-.5-.3-1.2-.5-2-.5-.4 0-.9.1-1.2.2-.4.1-.7.3-1.1.5-.3.2-.6.5-.9.8-.2.3-.5.7-.6 1v6.8c.4.7.9 1.3 1.5 1.7s1.4.6 2.3.6c.8 0 1.4-.2 2-.5.5-.3 1-.8 1.3-1.3.3-.5.6-1.1.7-1.8.2-.7.2-1.4.2-2.1v-.3zm5.7-6.7h6.4v12.4h4.7v1.3h-11v-1.3h4.8v-11h-4.8v-1.4zm4.4-3.8c0-.3.1-.6.3-.8s.5-.3.9-.3.7.1.9.3c.2.2.3.5.3.8 0 .3-.1.6-.3.8-.2.2-.5.3-.9.3s-.7-.1-.9-.3c-.2-.2-.3-.5-.3-.8zm10.6-2h6.4v18.2h4.6v1.3h-11v-1.3h4.9v-16.8h-4.9v-1.4zm20.4 19.7c-1 0-1.8-.2-2.6-.5s-1.5-.8-2-1.4c-.6-.6-1-1.3-1.3-2.1-.3-.8-.5-1.7-.5-2.6v-.5c0-1 .2-1.9.5-2.7s.8-1.6 1.3-2.2c.6-.6 1.2-1.1 1.9-1.5.7-.4 1.5-.5 2.4-.5.9 0 1.7.2 2.4.5s1.3.8 1.8 1.4c.5.6.8 1.2 1.1 2 .2.8.4 1.6.4 2.5v.9h-10.3v.3c0 .7.1 1.4.4 2.1.2.7.6 1.2 1 1.7s1 .9 1.6 1.2c.6.3 1.3.5 2 .5.8 0 1.6-.1 2.3-.5s1.3-.8 1.8-1.4l1 .7c-.3.4-.6.7-.9 1-.3.3-.7.6-1.2.8-.4.2-.9.4-1.4.5s-1.1-.2-1.7-.2zm-.3-12.9c-.6 0-1.2.1-1.7.3-.5.2-1 .6-1.4 1-.4.4-.7.9-1 1.5-.3.6-.4 1.2-.5 1.8h8.7v-.2c0-.6-.1-1.1-.3-1.7-.2-.5-.5-1-.8-1.4-.4-.4-.8-.7-1.3-1s-1-.3-1.7-.3zm30.2 12.9c-1 0-1.8-.2-2.6-.5s-1.5-.8-2-1.4c-.6-.6-1-1.3-1.3-2.1-.3-.8-.5-1.7-.5-2.6v-.5c0-1 .2-1.9.5-2.7s.8-1.6 1.3-2.2c.6-.6 1.2-1.1 1.9-1.5.7-.4 1.5-.5 2.4-.5.9 0 1.7.2 2.4.5s1.3.8 1.8 1.4c.5.6.8 1.2 1.1 2 .2.8.4 1.6.4 2.5v.9h-10.3v.3c0 .7.1 1.4.4 2.1.2.7.6 1.2 1 1.7s1 .9 1.6 1.2c.6.3 1.3.5 2 .5.8 0 1.6-.1 2.3-.5s1.3-.8 1.8-1.4l1 .7c-.3.4-.6.7-.9 1-.3.3-.7.6-1.2.8-.4.2-.9.4-1.4.5s-1.1-.2-1.7-.2zm-.3-12.9c-.6 0-1.2.1-1.7.3-.5.2-1 .6-1.4 1-.4.4-.7.9-1 1.5-.3.6-.4 1.2-.5 1.8h8.7v-.2c0-.6-.1-1.1-.3-1.7-.2-.5-.5-1-.8-1.4-.4-.4-.8-.7-1.3-1s-1-.3-1.7-.3zm14.9 4.6 4.3-5.6h1.8l-5.2 6.7 5.4 7h-1.8l-4.5-5.9-4.5 5.9h-1.8l5.4-7-5.2-6.7h1.8l4.3 5.6zm15.3 8.3c-1 0-1.8-.2-2.6-.5s-1.5-.8-2-1.4c-.6-.6-1-1.3-1.3-2.1-.3-.8-.5-1.7-.5-2.6v-.5c0-1 .2-1.9.5-2.7s.8-1.6 1.3-2.2c.6-.6 1.2-1.1 1.9-1.5.7-.4 1.5-.5 2.4-.5.9 0 1.7.2 2.4.5s1.3.8 1.8 1.4c.5.6.8 1.2 1.1 2 .2.8.4 1.6.4 2.5v.9h-10.3v.3c0 .7.1 1.4.4 2.1.2.7.6 1.2 1 1.7s1 .9 1.6 1.2c.6.3 1.3.5 2 .5.8 0 1.6-.1 2.3-.5s1.3-.8 1.8-1.4l1 .7c-.3.4-.6.7-.9 1-.3.3-.7.6-1.2.8-.4.2-.9.4-1.4.5s-1.1-.2-1.7-.2zm-.3-12.9c-.6 0-1.2.1-1.7.3-.5.2-1 .6-1.4 1-.4.4-.7.9-1 1.5-.3.6-.4 1.2-.5 1.8h8.7v-.2c0-.6-.1-1.1-.3-1.7-.2-.5-.5-1-.8-1.4-.4-.4-.8-.7-1.3-1s-1-.3-1.7-.3zm25.9 1.6c.5-.9 1.1-1.6 1.9-2.1.8-.5 1.7-.8 2.8-.8.8 0 1.4.1 2 .3.6.2 1.1.6 1.5 1 .4.4.7 1 .9 1.6.2.6.3 1.4.3 2.2v8.8h-1.5V261c0-.6-.1-1.2-.2-1.6-.1-.5-.4-.9-.7-1.2-.3-.3-.7-.6-1.1-.8-.4-.2-1-.3-1.5-.3s-.9.1-1.4.2l-1.2.6c-.4.3-.7.6-1 1-.3.4-.5.8-.7 1.2v9.6h-1.5v-19.5h1.5v8.6zm19.3 11.3c-1 0-1.8-.2-2.6-.5s-1.5-.8-2-1.4c-.6-.6-1-1.3-1.3-2.1-.3-.8-.5-1.7-.5-2.6v-.5c0-1 .2-1.9.5-2.7s.8-1.6 1.3-2.2c.6-.6 1.2-1.1 1.9-1.5.7-.4 1.5-.5 2.4-.5.9 0 1.7.2 2.4.5s1.3.8 1.8 1.4c.5.6.8 1.2 1.1 2 .2.8.4 1.6.4 2.5v.9h-10.3v.3c0 .7.1 1.4.4 2.1.2.7.6 1.2 1 1.7s1 .9 1.6 1.2c.6.3 1.3.5 2 .5.8 0 1.6-.1 2.3-.5s1.3-.8 1.8-1.4l1 .7c-.3.4-.6.7-.9 1-.3.3-.7.6-1.2.8-.4.2-.9.4-1.4.5s-1.1-.2-1.7-.2zm-.3-12.9c-.6 0-1.2.1-1.7.3-.5.2-1 .6-1.4 1-.4.4-.7.9-1 1.5-.3.6-.4 1.2-.5 1.8h8.7v-.2c0-.6-.1-1.1-.3-1.7-.2-.5-.5-1-.8-1.4-.4-.4-.8-.7-1.3-1s-1-.3-1.7-.3zm9.7-6.8h6.4v18.2h4.6v1.3h-11v-1.3h4.9v-16.8h-4.9v-1.4zm15 0h6.4v18.2h4.6v1.3h-11v-1.3h4.9v-16.8h-4.9v-1.4zm13.8 12.4c0-.9.2-1.8.4-2.7s.7-1.6 1.2-2.2c.5-.6 1.2-1.1 1.9-1.5.8-.4 1.6-.6 2.6-.6s1.8.2 2.6.6c.8.4 1.4.9 1.9 1.5s.9 1.4 1.2 2.2.4 1.7.4 2.7v.4c0 .9-.2 1.8-.4 2.7-.3.8-.7 1.6-1.2 2.2-.5.6-1.2 1.1-1.9 1.5-.8.4-1.6.6-2.6.6s-1.8-.2-2.6-.6c-.8-.4-1.4-.9-1.9-1.5s-.9-1.4-1.2-2.2-.4-1.7-.4-2.7v-.4zm1.5.4c0 .7.1 1.4.3 2.1s.5 1.3.9 1.8.9.9 1.4 1.2 1.2.5 2 .5c.7 0 1.4-.2 2-.5s1-.7 1.4-1.2c.4-.5.7-1.1.9-1.8s.3-1.4.3-2.1v-.4c0-.7-.1-1.4-.3-2.1s-.5-1.3-.9-1.8-.9-.9-1.4-1.3c-.6-.3-1.2-.5-2-.5-.7 0-1.4.2-2 .5-.6.3-1 .7-1.4 1.3-.4.5-.7 1.1-.9 1.8s-.3 1.4-.3 2.1v.4zm18.7 5.6c0-.4.1-.7.3-.9.2-.2.5-.4.9-.4s.7.1 1 .4c.2.2.3.6.3.9s-.1.6-.3.9c-.2.2-.6.3-1 .3s-.7-.1-.9-.3c-.2-.2-.3-.5-.3-.9zm10-5.9c0-.9.1-1.8.3-2.6.2-.8.6-1.6 1-2.2.5-.6 1-1.2 1.7-1.5.7-.4 1.5-.6 2.4-.6.9 0 1.7.2 2.3.6.7.4 1.3.9 1.7 1.6v-7.6h1.5v19.5h-1.4l-.1-1.8c-.5.7-1.1 1.2-1.8 1.5-.7.4-1.5.5-2.3.5-.9 0-1.7-.2-2.4-.6-.7-.4-1.2-.9-1.7-1.6-.5-.6-.8-1.4-1-2.2-.2-.8-.3-1.7-.3-2.6v-.4zm1.6.3c0 .7.1 1.4.2 2 .1.7.4 1.3.7 1.8.3.5.8 1 1.3 1.3s1.2.5 2 .5c.4 0 .8-.1 1.2-.2.4-.1.7-.3 1.1-.5.3-.2.6-.5.9-.8.3-.3.5-.6.7-1v-6.7c-.2-.4-.4-.7-.6-1-.2-.3-.5-.6-.9-.8-.3-.2-.7-.4-1.1-.5-.4-.1-.8-.2-1.2-.2-.8 0-1.4.2-2 .5-.5.3-1 .8-1.3 1.3-.3.5-.6 1.1-.7 1.8-.1.7-.2 1.4-.2 2v.5zm23.3 6.7c-.1-.3-.2-.6-.2-.9-.1-.3-.1-.7-.1-1l-.9.9c-.3.3-.7.5-1.1.7-.4.2-.9.4-1.3.5-.5.1-1 .2-1.5.2-.6 0-1.2-.1-1.8-.3-.6-.2-1-.4-1.4-.8-.4-.3-.7-.7-1-1.2-.2-.5-.3-1-.3-1.6 0-.8.2-1.5.5-2s.8-1 1.4-1.3c.6-.3 1.3-.6 2.1-.8.8-.2 1.6-.2 2.5-.2h3v-1.6c0-.5-.1-1-.3-1.4-.2-.4-.5-.7-.8-1-.3-.3-.7-.5-1.2-.6-.5-.1-1-.2-1.5-.2s-1 .1-1.4.2-.8.3-1.2.5-.6.5-.8.9c-.2.3-.3.7-.3 1.2h-1.5c0-.6.2-1.1.5-1.6s.7-.9 1.1-1.3c.5-.4 1-.6 1.7-.8.6-.2 1.3-.3 2.1-.3.7 0 1.4.1 2 .3.6.2 1.2.5 1.7.8s.8.8 1.1 1.4c.3.6.4 1.2.4 2v6.7c0 .5 0 .9.1 1.4.1.5.2.9.3 1.3v.2h-1.9zm-5-1.1c.5 0 1-.1 1.5-.2s.9-.3 1.3-.6c.4-.2.8-.5 1.1-.9.3-.3.6-.7.7-1.1v-3h-2.8c-.7 0-1.3.1-1.9.2-.6.1-1.2.3-1.6.5-.5.2-.9.5-1.1.9-.3.4-.4.9-.4 1.5 0 .4.1.8.3 1.1.2.3.4.6.7.8.3.2.6.4 1 .5.3.2.7.3 1.2.3zm19.6-12.9c.4 0 .8 0 1.1.1.4 0 .7.1 1 .2l-.2 1.5c-.4-.1-.7-.1-1.1-.2s-.7-.1-1.1-.1c-1.3 0-2.4.3-3.3.9-.9.6-1.5 1.5-1.9 2.8v8.8h-1.6v-13.7h1.5l.1 2.4v.3c.6-.9 1.3-1.6 2.2-2.1 1-.6 2.1-.9 3.3-.9zm10.9-3.3v3.5h5.1v1.2h-5.1v8.6c0 .5.1 1 .2 1.3.2.4.4.6.6.8.3.2.6.4.9.5.4.1.8.1 1.2.1.4 0 .9 0 1.3-.1s.8-.1 1.1-.2l.2 1.2c-.4.1-.8.3-1.3.3-.5.1-1.1.1-1.6.1-.6 0-1.2-.1-1.7-.2s-1-.4-1.3-.7c-.4-.3-.7-.7-.9-1.3-.2-.5-.3-1.2-.3-1.9v-8.6h-3.8V256h3.8v-3.5h1.6zm-414 55.7c0-.5-.1-1-.3-1.4-.2-.4-.5-.8-.9-1.1-.4-.3-.8-.6-1.3-.8-.5-.2-1-.5-1.6-.7-.7-.2-1.4-.5-2-.8s-1.2-.7-1.6-1.1-.8-.9-1.1-1.5c-.3-.6-.4-1.2-.4-2 0-.7.1-1.4.4-1.9.2-.6.6-1.1 1-1.5s.9-.7 1.5-1c.6-.2 1.2-.4 1.9-.5v-2.6h1.3v2.6c.7.1 1.4.2 1.9.5s1.1.7 1.5 1.2c.4.5.7 1.1.9 1.7s.3 1.4.3 2.2H185c0-.6-.1-1.2-.3-1.8s-.4-1-.8-1.4-.7-.7-1.2-.9c-.5-.2-1-.3-1.6-.3-.5 0-1 .1-1.5.2-.5.2-.9.4-1.2.7s-.6.7-.8 1.1c-.2.4-.3.9-.3 1.5s.1 1.1.3 1.5c.2.4.5.8.9 1.1.4.3.8.6 1.3.8.5.2 1.1.5 1.7.7.7.2 1.4.5 2 .8.6.3 1.2.6 1.6 1.1.5.4.8.9 1.1 1.5.3.6.4 1.2.4 2 0 .7-.1 1.4-.4 1.9-.2.6-.6 1.1-1 1.5-.4.4-.9.7-1.5 1-.6.2-1.2.4-1.9.4v2.4h-1.3V313c-.7-.1-1.4-.2-2-.4-.6-.2-1.2-.6-1.7-1-.5-.5-.9-1-1.2-1.7-.3-.7-.4-1.5-.5-2.4h1.5c0 .7.1 1.4.4 1.9.2.5.6 1 1 1.3.4.3.9.6 1.4.8s1.1.2 1.6.2 1.1-.1 1.5-.2c.5-.2.9-.4 1.3-.7s.7-.7.9-1.1c.3-.3.4-.8.4-1.4zm25.2-12.7v3.5h5.1v1.2h-5.1v8.6c0 .5.1 1 .2 1.3.2.4.4.6.6.8.3.2.6.4.9.5.4.1.8.1 1.2.1.4 0 .9 0 1.3-.1s.8-.1 1.1-.2l.2 1.2c-.4.1-.8.3-1.3.3-.5.1-1.1.1-1.6.1-.6 0-1.2-.1-1.7-.2s-1-.4-1.3-.7c-.4-.3-.7-.7-.9-1.3-.2-.5-.3-1.2-.3-1.9v-8.6H205V299h3.8v-3.5h1.5zm10.3 3.6h6.4v12.4h4.7v1.3h-11v-1.3h4.8v-11h-4.8v-1.4zm4.4-3.8c0-.3.1-.6.3-.8s.5-.3.9-.3.7.1.9.3c.2.2.3.5.3.8 0 .3-.1.6-.3.8-.2.2-.5.3-.9.3s-.7-.1-.9-.3c-.2-.2-.3-.5-.3-.8zm10.2 3.8v1.5c.3-.5.7-1 1.1-1.3.5-.3 1.1-.5 1.8-.5.4 0 .7 0 1 .1.3.1.6.2.8.4l.6.6c.2.2.3.5.4.7.3-.5.7-.9 1.2-1.3.5-.3 1.1-.5 1.9-.5.6 0 1.1.1 1.5.3.4.2.7.5 1 .8.2.3.4.7.5 1.2.1.5.2.9.2 1.4v10.2h-1.4v-10.2c0-.3 0-.6-.1-.9-.1-.3-.2-.6-.3-.8-.1-.2-.4-.4-.6-.6s-.6-.2-1-.2-.8.1-1.1.2-.5.3-.7.5-.3.4-.4.7c-.1.2-.2.5-.2.8v10.5H240v-10.3c0-.3 0-.6-.1-.9-.1-.3-.2-.5-.3-.7-.1-.2-.4-.4-.6-.5-.3-.1-.6-.2-1-.2s-.8.1-1 .2c-.3.1-.5.3-.7.5-.2.2-.3.4-.5.7-.1.3-.2.5-.3.8v10.5h-1.4v-13.7h1.1zm20.8 13.9c-1 0-1.8-.2-2.6-.5s-1.5-.8-2-1.4c-.6-.6-1-1.3-1.3-2.1-.3-.8-.5-1.7-.5-2.6v-.5c0-1 .2-1.9.5-2.7s.8-1.6 1.3-2.2c.6-.6 1.2-1.1 1.9-1.5.7-.4 1.5-.5 2.4-.5.9 0 1.7.2 2.4.5s1.3.8 1.8 1.4c.5.6.8 1.2 1.1 2 .2.8.4 1.6.4 2.5v.9h-10.3v.3c0 .7.1 1.4.4 2.1.2.7.6 1.2 1 1.7s1 .9 1.6 1.2c.6.3 1.3.5 2 .5.8 0 1.6-.1 2.3-.5s1.3-.8 1.8-1.4l1 .7c-.3.4-.6.7-.9 1-.3.3-.7.6-1.2.8-.4.2-.9.4-1.4.5s-1.1-.2-1.7-.2zm-.3-12.9c-.6 0-1.2.1-1.7.3-.5.2-1 .6-1.4 1-.4.4-.7.9-1 1.5-.3.6-.4 1.2-.5 1.8h8.7v-.2c0-.6-.1-1.1-.3-1.7-.2-.5-.5-1-.8-1.4-.4-.4-.8-.7-1.3-1s-1-.3-1.7-.3zm28.8 11.6c0-.4.1-.7.3-.9.2-.2.5-.4.9-.4s.7.1 1 .4c.2.2.3.6.3.9s-.1.6-.3.9c-.2.2-.6.3-1 .3s-.7-.1-.9-.3c-.2-.2-.3-.5-.3-.9zm13 2.7h-1.4l7.7-20.1h1.4l-7.7 20.1zm14-12.7c.5-.9 1.1-1.6 1.9-2.1.8-.5 1.7-.8 2.8-.8.8 0 1.4.1 2 .3.6.2 1.1.6 1.5 1 .4.4.7 1 .9 1.6.2.6.3 1.4.3 2.2v8.8h-1.5V304c0-.6-.1-1.2-.2-1.6-.1-.5-.4-.9-.7-1.2-.3-.3-.7-.6-1.1-.8-.4-.2-1-.3-1.5-.3s-.9.1-1.4.2l-1.2.6c-.4.3-.7.6-1 1-.3.4-.5.8-.7 1.2v9.6h-1.5v-19.5h1.5v8.6zm19.3 11.3c-1 0-1.8-.2-2.6-.5s-1.5-.8-2-1.4c-.6-.6-1-1.3-1.3-2.1-.3-.8-.5-1.7-.5-2.6v-.5c0-1 .2-1.9.5-2.7s.8-1.6 1.3-2.2c.6-.6 1.2-1.1 1.9-1.5.7-.4 1.5-.5 2.4-.5.9 0 1.7.2 2.4.5s1.3.8 1.8 1.4c.5.6.8 1.2 1.1 2 .2.8.4 1.6.4 2.5v.9h-10.3v.3c0 .7.1 1.4.4 2.1.2.7.6 1.2 1 1.7s1 .9 1.6 1.2c.6.3 1.3.5 2 .5.8 0 1.6-.1 2.3-.5s1.3-.8 1.8-1.4l1 .7c-.3.4-.6.7-.9 1-.3.3-.7.6-1.2.8-.4.2-.9.4-1.4.5s-1.2-.2-1.7-.2zm-.3-12.9c-.6 0-1.2.1-1.7.3-.5.2-1 .6-1.4 1-.4.4-.7.9-1 1.5-.3.6-.4 1.2-.5 1.8h8.7v-.2c0-.6-.1-1.1-.3-1.7-.2-.5-.5-1-.8-1.4-.4-.4-.8-.7-1.3-1s-1.1-.3-1.7-.3zm9.7-6.8h6.4v18.2h4.6v1.3h-11v-1.3h4.9v-16.8h-4.9v-1.4zm15 0h6.4v18.2h4.6v1.3h-11v-1.3h4.9v-16.8h-4.9v-1.4zm13.8 12.4c0-.9.2-1.8.4-2.7s.7-1.6 1.2-2.2c.5-.6 1.2-1.1 1.9-1.5.8-.4 1.6-.6 2.6-.6s1.8.2 2.6.6c.8.4 1.4.9 1.9 1.5s.9 1.4 1.2 2.2.4 1.7.4 2.7v.4c0 .9-.2 1.8-.4 2.7-.3.8-.7 1.6-1.2 2.2-.5.6-1.2 1.1-1.9 1.5-.8.4-1.6.6-2.6.6s-1.8-.2-2.6-.6c-.8-.4-1.4-.9-1.9-1.5s-.9-1.4-1.2-2.2c-.3-.8-.4-1.7-.4-2.7v-.4zm1.5.4c0 .7.1 1.4.3 2.1.2.7.5 1.3.9 1.8s.9.9 1.4 1.2 1.2.5 2 .5c.7 0 1.4-.2 2-.5s1-.7 1.4-1.2c.4-.5.7-1.1.9-1.8.2-.7.3-1.4.3-2.1v-.4c0-.7-.1-1.4-.3-2.1s-.5-1.3-.9-1.8-.9-.9-1.4-1.3c-.6-.3-1.2-.5-2-.5-.7 0-1.4.2-2 .5-.6.3-1 .7-1.4 1.3-.4.5-.7 1.1-.9 1.8s-.3 1.4-.3 2.1v.4zm18.6 5.6c0-.4.1-.7.3-.9.2-.2.5-.4.9-.4s.7.1 1 .4c.2.2.3.6.3.9s-.1.6-.3.9c-.2.2-.6.3-1 .3s-.7-.1-.9-.3c-.1-.2-.3-.5-.3-.9zm16.4 1.3c-1 0-1.8-.2-2.6-.5s-1.5-.8-2-1.4c-.6-.6-1-1.3-1.3-2.1-.3-.8-.5-1.7-.5-2.6v-.5c0-1 .2-1.9.5-2.7s.8-1.6 1.3-2.2c.6-.6 1.2-1.1 1.9-1.5.7-.4 1.5-.5 2.4-.5.9 0 1.7.2 2.4.5s1.3.8 1.8 1.4c.5.6.8 1.2 1.1 2 .2.8.4 1.6.4 2.5v.9h-10.3v.3c0 .7.1 1.4.4 2.1.2.7.6 1.2 1 1.7s1 .9 1.6 1.2c.6.3 1.3.5 2 .5.8 0 1.6-.1 2.3-.5s1.3-.8 1.8-1.4l1 .7c-.3.4-.6.7-.9 1-.3.3-.7.6-1.2.8-.4.2-.9.4-1.4.5s-1.1-.2-1.7-.2zm-.3-12.9c-.6 0-1.2.1-1.7.3-.5.2-1 .6-1.4 1-.4.4-.7.9-1 1.5-.3.6-.4 1.2-.5 1.8h8.7v-.2c0-.6-.1-1.1-.3-1.7-.2-.5-.5-1-.8-1.4-.4-.4-.8-.7-1.3-1s-1-.3-1.7-.3zm14.9 4.6 4.3-5.6h1.8l-5.2 6.7 5.4 7h-1.8l-4.5-5.9-4.5 5.9h-1.8l5.4-7-5.2-6.7h1.8l4.3 5.6zm15.3 8.3c-1 0-1.8-.2-2.6-.5s-1.5-.8-2-1.4c-.6-.6-1-1.3-1.3-2.1-.3-.8-.5-1.7-.5-2.6v-.5c0-1 .2-1.9.5-2.7s.8-1.6 1.3-2.2c.6-.6 1.2-1.1 1.9-1.5.7-.4 1.5-.5 2.4-.5.9 0 1.7.2 2.4.5s1.3.8 1.8 1.4c.5.6.8 1.2 1.1 2 .2.8.4 1.6.4 2.5v.9h-10.3v.3c0 .7.1 1.4.4 2.1.2.7.6 1.2 1 1.7s1 .9 1.6 1.2c.6.3 1.3.5 2 .5.8 0 1.6-.1 2.3-.5s1.3-.8 1.8-1.4l1 .7c-.3.4-.6.7-.9 1-.3.3-.7.6-1.2.8-.4.2-.9.4-1.4.5s-1.1-.2-1.7-.2zm-.3-12.9c-.6 0-1.2.1-1.7.3-.5.2-1 .6-1.4 1-.4.4-.7.9-1 1.5-.3.6-.4 1.2-.5 1.8h8.7v-.2c0-.6-.1-1.1-.3-1.7-.2-.5-.5-1-.8-1.4-.4-.4-.8-.7-1.3-1s-1-.3-1.7-.3zm-248.6 55.7h-1.4V347h-8.7v8.9H175v-18.5h1.4v8.3h8.7v-8.3h1.4v18.5zm9.7.2c-1 0-1.8-.2-2.6-.5s-1.5-.8-2-1.4c-.6-.6-1-1.3-1.3-2.1-.3-.8-.5-1.7-.5-2.6v-.5c0-1 .2-1.9.5-2.7s.8-1.6 1.3-2.2c.5-.6 1.2-1.1 1.9-1.5.7-.4 1.5-.5 2.4-.5.9 0 1.7.2 2.4.5s1.3.8 1.8 1.4c.5.6.8 1.2 1.1 2 .2.8.4 1.6.4 2.5v.9h-10.3v.3c0 .7.1 1.4.4 2.1.2.7.6 1.2 1 1.7s1 .9 1.6 1.2c.6.3 1.3.5 2 .5.8 0 1.6-.1 2.3-.5s1.3-.8 1.8-1.4l1 .7c-.3.4-.6.7-.9 1-.3.3-.7.6-1.2.8-.4.2-.9.4-1.4.5s-1.1-.2-1.7-.2zm-.3-12.9c-.6 0-1.2.1-1.7.3-.5.2-1 .6-1.4 1-.4.4-.7.9-1 1.5-.3.6-.4 1.2-.5 1.8h8.7v-.2c0-.6-.1-1.1-.3-1.7-.2-.5-.5-1-.8-1.4-.4-.4-.8-.7-1.3-1s-1-.3-1.7-.3zm9.7-6.8h6.4v18.2h4.6v1.3h-11v-1.3h4.9v-16.8h-4.9v-1.4zm15 0h6.4v18.2h4.6v1.3h-11v-1.3h4.9v-16.8h-4.9v-1.4zm13.8 12.4c0-.9.2-1.8.4-2.7s.7-1.6 1.2-2.2c.5-.6 1.2-1.1 1.9-1.5.8-.4 1.6-.6 2.6-.6s1.8.2 2.6.6c.8.4 1.4.9 1.9 1.5s.9 1.4 1.2 2.2.4 1.7.4 2.7v.4c0 .9-.2 1.8-.4 2.7-.3.8-.7 1.6-1.2 2.2-.5.6-1.2 1.1-1.9 1.5-.8.4-1.6.6-2.6.6s-1.8-.2-2.6-.6c-.8-.4-1.4-.9-1.9-1.5s-.9-1.4-1.2-2.2-.4-1.7-.4-2.7v-.4zm1.5.4c0 .7.1 1.4.3 2.1s.5 1.3.9 1.8.9.9 1.4 1.2 1.2.5 2 .5c.7 0 1.4-.2 2-.5s1-.7 1.4-1.2c.4-.5.7-1.1.9-1.8s.3-1.4.3-2.1v-.4c0-.7-.1-1.4-.3-2.1s-.5-1.3-.9-1.8-.9-.9-1.4-1.3c-.6-.3-1.2-.5-2-.5-.7 0-1.4.2-2 .5-.6.3-1 .7-1.4 1.3-.4.5-.7 1.1-.9 1.8s-.3 1.4-.3 2.1v.4zm19.4 6.2c0 .4 0 .7-.1 1.1-.1.4-.2.7-.3 1.1-.1.4-.3.7-.6 1-.2.3-.5.6-.8.9l-1-.6c.7-1.1 1.1-2.2 1.1-3.5v-2h1.6v2zm24.5.5v-18.5h4.5c1.2 0 2.2.2 3.2.7.9.4 1.7 1 2.4 1.8.6.8 1.1 1.6 1.5 2.6.3 1 .5 2.1.5 3.2v1.8c0 1.1-.2 2.2-.5 3.2s-.8 1.9-1.5 2.6c-.6.8-1.4 1.4-2.4 1.8-.9.4-2 .7-3.2.7h-4.5zm1.6-17.2v15.9h2.9c1 0 1.9-.2 2.6-.6s1.4-.9 1.9-1.6c.5-.6.9-1.4 1.1-2.2.3-.8.4-1.7.4-2.6v-1.9c0-.9-.1-1.8-.4-2.6-.3-.8-.6-1.6-1.1-2.2-.5-.6-1.1-1.2-1.9-1.5s-1.6-.6-2.6-.6h-2.9zm19.5 17.4c-1 0-1.8-.2-2.6-.5s-1.5-.8-2-1.4c-.6-.6-1-1.3-1.3-2.1-.3-.8-.5-1.7-.5-2.6v-.5c0-1 .2-1.9.5-2.7s.8-1.6 1.3-2.2c.6-.6 1.2-1.1 1.9-1.5.7-.4 1.5-.5 2.4-.5.9 0 1.7.2 2.4.5s1.3.8 1.8 1.4c.5.6.8 1.2 1.1 2 .2.8.4 1.6.4 2.5v.9H296v.3c0 .7.1 1.4.4 2.1.2.7.6 1.2 1 1.7s1 .9 1.6 1.2c.6.3 1.3.5 2 .5.8 0 1.6-.1 2.3-.5s1.3-.8 1.8-1.4l1 .7c-.3.4-.6.7-.9 1-.3.3-.7.6-1.2.8-.4.2-.9.4-1.4.5s-1.2-.2-1.7-.2zm-.3-12.9c-.6 0-1.2.1-1.7.3-.5.2-1 .6-1.4 1-.4.4-.7.9-1 1.5-.3.6-.4 1.2-.5 1.8h8.7v-.2c0-.6-.1-1.1-.3-1.7-.2-.5-.5-1-.8-1.4-.4-.4-.8-.7-1.3-1s-1.1-.3-1.7-.3zm14.6 10.6.1.3.1-.3 4.7-11.7h1.6l-5.8 13.7h-1.2l-5.8-13.7h1.6l4.7 11.7zm15.6 2.3c-1 0-1.8-.2-2.6-.5s-1.5-.8-2-1.4c-.6-.6-1-1.3-1.3-2.1-.3-.8-.5-1.7-.5-2.6v-.5c0-1 .2-1.9.5-2.7s.8-1.6 1.3-2.2c.6-.6 1.2-1.1 1.9-1.5.7-.4 1.5-.5 2.4-.5.9 0 1.7.2 2.4.5s1.3.8 1.8 1.4c.5.6.8 1.2 1.1 2 .2.8.4 1.6.4 2.5v.9h-10.3v.3c0 .7.1 1.4.4 2.1.2.7.6 1.2 1 1.7s1 .9 1.6 1.2c.6.3 1.3.5 2 .5.8 0 1.6-.1 2.3-.5s1.3-.8 1.8-1.4l1 .7c-.3.4-.6.7-.9 1-.3.3-.7.6-1.2.8-.4.2-.9.4-1.4.5s-1.2-.2-1.7-.2zm-.3-12.9c-.6 0-1.2.1-1.7.3-.5.2-1 .6-1.4 1-.4.4-.7.9-1 1.5-.3.6-.4 1.2-.5 1.8h8.7v-.2c0-.6-.1-1.1-.3-1.7-.2-.5-.5-1-.8-1.4-.4-.4-.8-.7-1.3-1s-1.1-.3-1.7-.3zm9.7-6.8h6.4v18.2h4.6v1.3h-11v-1.3h4.9v-16.8h-4.9v-1.4zm13.8 12.4c0-.9.2-1.8.4-2.7s.7-1.6 1.2-2.2c.5-.6 1.2-1.1 1.9-1.5.8-.4 1.6-.6 2.6-.6s1.8.2 2.6.6c.8.4 1.4.9 1.9 1.5s.9 1.4 1.2 2.2.4 1.7.4 2.7v.4c0 .9-.2 1.8-.4 2.7-.3.8-.7 1.6-1.2 2.2-.5.6-1.2 1.1-1.9 1.5-.8.4-1.6.6-2.6.6s-1.8-.2-2.6-.6c-.8-.4-1.4-.9-1.9-1.5s-.9-1.4-1.2-2.2-.4-1.7-.4-2.7v-.4zm1.5.4c0 .7.1 1.4.3 2.1s.5 1.3.9 1.8.9.9 1.4 1.2 1.2.5 2 .5c.7 0 1.4-.2 2-.5s1-.7 1.4-1.2c.4-.5.7-1.1.9-1.8s.3-1.4.3-2.1v-.4c0-.7-.1-1.4-.3-2.1s-.5-1.3-.9-1.8-.9-.9-1.4-1.3c-.6-.3-1.2-.5-2-.5-.7 0-1.4.2-2 .5-.6.3-1 .7-1.4 1.3-.4.5-.7 1.1-.9 1.8s-.3 1.4-.3 2.1v.4zm25.4 0c0 .9-.1 1.8-.3 2.6-.2.8-.5 1.6-1 2.2-.4.6-1 1.2-1.7 1.6-.7.4-1.5.6-2.4.6-.9 0-1.6-.2-2.3-.5s-1.3-.8-1.8-1.4v7h-1.5v-19h1.4l.1 1.9c.5-.7 1.1-1.2 1.8-1.6.7-.4 1.5-.6 2.4-.6.9 0 1.8.2 2.4.6.7.4 1.2.9 1.7 1.5.4.6.8 1.4 1 2.2.2.8.3 1.7.3 2.6v.3zm-1.6-.3c0-.7-.1-1.4-.2-2s-.4-1.3-.7-1.8c-.3-.5-.8-1-1.3-1.3-.5-.3-1.2-.5-2-.5-.4 0-.9.1-1.2.2-.4.1-.7.3-1.1.5-.3.2-.6.5-.9.8-.2.3-.5.7-.6 1v6.8c.4.7.9 1.3 1.5 1.7s1.4.6 2.3.6c.8 0 1.4-.2 2-.5.5-.3 1-.8 1.3-1.3.3-.5.6-1.1.7-1.8.2-.7.2-1.4.2-2.1v-.3zm11.3 7.2c-1 0-1.8-.2-2.6-.5s-1.5-.8-2-1.4c-.6-.6-1-1.3-1.3-2.1-.3-.8-.5-1.7-.5-2.6v-.5c0-1 .2-1.9.5-2.7s.8-1.6 1.3-2.2c.5-.6 1.2-1.1 1.9-1.5.7-.4 1.5-.5 2.4-.5.9 0 1.7.2 2.4.5s1.3.8 1.8 1.4c.5.6.8 1.2 1.1 2 .2.8.4 1.6.4 2.5v.9h-10.3v.3c0 .7.1 1.4.4 2.1.2.7.6 1.2 1 1.7s1 .9 1.6 1.2c.6.3 1.3.5 2 .5.8 0 1.6-.1 2.3-.5s1.3-.8 1.8-1.4l1 .7c-.3.4-.6.7-.9 1-.3.3-.7.6-1.2.8-.4.2-.9.4-1.4.5s-1.2-.2-1.7-.2zm-.3-12.9c-.6 0-1.2.1-1.7.3-.5.2-1 .6-1.4 1-.4.4-.7.9-1 1.5-.3.6-.4 1.2-.5 1.8h8.7v-.2c0-.6-.1-1.1-.3-1.7-.2-.5-.5-1-.8-1.4-.4-.4-.8-.7-1.3-1s-1.1-.3-1.7-.3zm18.5-1.3c.4 0 .8 0 1.1.1.4 0 .7.1 1 .2l-.2 1.5c-.4-.1-.7-.1-1.1-.2s-.7-.1-1.1-.1c-1.3 0-2.4.3-3.3.9-.9.6-1.5 1.5-1.9 2.8v8.8h-1.6v-13.7h1.5l.1 2.4v.3c.6-.9 1.3-1.6 2.2-2.1 1-.6 2-.9 3.3-.9zm9.9 13.1c0-.3.1-.5.3-.8.2-.2.5-.3.8-.3.3 0 .6.1.8.3.2.2.3.5.3.8 0 .3-.1.5-.3.7s-.5.3-.8.3-.6-.1-.8-.3c-.2-.2-.3-.4-.3-.7zm1.8-4.6H419v-13h1.5v13zm-238.9 83.8H177v7.7h-1.5v-18.5h5.2c.8 0 1.6.1 2.3.4.7.2 1.3.6 1.9 1.1.5.5 1 1 1.3 1.7.3.7.5 1.4.5 2.3 0 .6-.1 1.2-.3 1.7-.2.5-.4 1-.8 1.4-.3.4-.7.8-1.1 1.1s-.9.6-1.5.8l4.2 7.9v.2h-1.6l-4-7.8zm-4.6-1.3h4c.6 0 1.1-.1 1.6-.3.5-.2.9-.5 1.3-.8.4-.4.7-.8.9-1.3.2-.5.3-1 .3-1.6 0-.7-.1-1.2-.3-1.7s-.5-.9-.9-1.3-.9-.6-1.4-.8c-.5-.2-1.1-.3-1.7-.3H177v8.1zm19.2 9.2c-1 0-1.8-.2-2.6-.5s-1.5-.8-2-1.4c-.6-.6-1-1.3-1.3-2.1-.3-.8-.5-1.7-.5-2.6v-.5c0-1 .2-1.9.5-2.7s.8-1.6 1.3-2.2c.5-.6 1.2-1.1 1.9-1.5.7-.4 1.5-.5 2.4-.5.9 0 1.7.2 2.4.5s1.3.8 1.8 1.4c.5.6.8 1.2 1.1 2 .2.8.4 1.6.4 2.5v.9h-10.3v.3c0 .7.1 1.4.4 2.1.2.7.6 1.2 1 1.7s1 .9 1.6 1.2c.6.3 1.3.5 2 .5.8 0 1.6-.1 2.3-.5s1.3-.8 1.8-1.4l1 .7c-.3.4-.6.7-.9 1-.3.3-.7.6-1.2.8-.4.2-.9.4-1.4.5s-1.1-.2-1.7-.2zm-.3-12.9c-.6 0-1.2.1-1.7.3-.5.2-1 .6-1.4 1-.4.4-.7.9-1 1.5-.3.6-.4 1.2-.5 1.8h8.7v-.2c0-.6-.1-1.1-.3-1.7-.2-.5-.5-1-.8-1.4-.4-.4-.8-.7-1.3-1s-1-.3-1.7-.3zm18.8 12.7c-.1-.3-.2-.6-.2-.9-.1-.3-.1-.7-.1-1l-.9.9c-.3.3-.7.5-1.1.7-.4.2-.9.4-1.3.5-.5.1-1 .2-1.5.2-.6 0-1.2-.1-1.8-.3-.6-.2-1-.4-1.4-.8-.4-.3-.7-.7-1-1.2-.2-.5-.3-1-.3-1.6 0-.8.2-1.5.5-2s.8-1 1.4-1.3c.6-.3 1.3-.6 2.1-.8.8-.2 1.6-.2 2.5-.2h3v-1.6c0-.5-.1-1-.3-1.4-.2-.4-.5-.7-.8-1-.3-.3-.7-.5-1.2-.6-.5-.1-1-.2-1.5-.2s-1 .1-1.4.2-.8.3-1.2.5-.6.5-.8.9c-.2.3-.3.7-.3 1.2h-1.5c0-.6.2-1.1.5-1.6s.7-.9 1.1-1.3c.5-.4 1-.6 1.7-.8.6-.2 1.3-.3 2-.3s1.4.1 2.1.3c.6.2 1.2.5 1.7.8s.8.8 1.1 1.4c.3.6.4 1.2.4 2v6.7c0 .5 0 .9.1 1.4.1.5.2.9.3 1.3v.2h-1.9zm-5-1.1c.5 0 1-.1 1.5-.2s.9-.3 1.3-.6c.4-.2.8-.5 1.1-.9.3-.3.6-.7.7-1.1v-3h-2.8c-.7 0-1.3.1-1.9.2-.6.1-1.2.3-1.6.5-.5.2-.9.5-1.1.9-.3.4-.4.9-.4 1.5 0 .4.1.8.3 1.1.2.3.4.6.7.8.3.2.6.4 1 .5.3.2.8.3 1.2.3zm10.9-18.4h6.4v18.2h4.6v1.3h-11v-1.3h4.9v-16.8h-4.9v-1.4zm38 12.2c0 1-.1 2-.3 2.9-.2.9-.6 1.7-1.1 2.4-.5.7-1.1 1.2-1.8 1.6-.7.4-1.6.6-2.6.6s-1.9-.2-2.6-.6c-.7-.4-1.3-.9-1.8-1.6-.5-.7-.8-1.5-1.1-2.4-.2-.9-.4-1.9-.4-2.9v-3.8c0-1 .1-2 .4-2.9.2-.9.6-1.7 1.1-2.4.5-.7 1.1-1.2 1.8-1.6.7-.4 1.6-.6 2.6-.6s1.9.2 2.6.6c.7.4 1.3.9 1.8 1.6.5.7.8 1.5 1.1 2.4.2.9.3 1.9.3 2.9v3.8zm-10.1.2v1l8.3-7.6c-.1-.5-.3-1-.5-1.5s-.5-.9-.8-1.2c-.3-.3-.7-.6-1.2-.8s-1-.3-1.6-.3c-.8 0-1.5.2-2 .5s-1 .8-1.3 1.3c-.3.6-.6 1.2-.7 1.9s-.2 1.5-.2 2.3v4.4zm8.5-4.3v-.8l-8.3 7.5c.1.5.3 1 .5 1.5.2.4.5.8.8 1.2.3.3.7.6 1.2.8.4.2 1 .3 1.5.3.8 0 1.5-.2 2-.5s1-.8 1.3-1.3c.3-.6.6-1.2.7-1.9s.2-1.5.2-2.3v-4.5zm5.4-2.3v1.5c.3-.5.7-1 1.1-1.3.5-.3 1.1-.5 1.8-.5.4 0 .7 0 1 .1.3.1.6.2.8.4l.6.6c.2.2.3.5.4.7.3-.5.7-.9 1.2-1.3.5-.3 1.1-.5 1.9-.5.6 0 1.1.1 1.5.3.4.2.7.5 1 .8.2.3.4.7.5 1.2.1.5.2.9.2 1.4v10.2H273v-10.2c0-.3 0-.6-.1-.9-.1-.3-.2-.6-.3-.8-.1-.2-.4-.4-.6-.6s-.6-.2-1-.2-.8.1-1.1.2-.5.3-.7.5-.3.4-.4.7c-.1.2-.2.5-.2.8v10.5H267v-10.3c0-.3 0-.6-.1-.9-.1-.3-.2-.5-.3-.7-.1-.2-.4-.4-.6-.5-.3-.1-.6-.2-1-.2s-.8.1-1 .2c-.3.1-.5.3-.7.5-.2.2-.3.4-.5.7-.1.3-.2.5-.3.8v10.5H261v-13.7h1.4zm26.1 6.4c0 1-.1 2-.3 2.9-.2.9-.6 1.7-1.1 2.4-.5.7-1.1 1.2-1.8 1.6-.7.4-1.6.6-2.6.6s-1.9-.2-2.6-.6c-.7-.4-1.3-.9-1.8-1.6-.5-.7-.8-1.5-1.1-2.4-.2-.9-.4-1.9-.4-2.9v-3.8c0-1 .1-2 .4-2.9.2-.9.6-1.7 1.1-2.4.5-.7 1.1-1.2 1.8-1.6.7-.4 1.6-.6 2.6-.6s1.9.2 2.6.6c.7.4 1.3.9 1.8 1.6.5.7.8 1.5 1.1 2.4.2.9.3 1.9.3 2.9v3.8zm-10.1.2v1l8.3-7.6c-.1-.5-.3-1-.5-1.5s-.5-.9-.8-1.2c-.3-.3-.7-.6-1.2-.8s-1-.3-1.6-.3c-.8 0-1.5.2-2 .5s-1 .8-1.3 1.3c-.3.6-.6 1.2-.7 1.9s-.2 1.5-.2 2.3v4.4zm8.6-4.3v-.8l-8.3 7.5c.1.5.3 1 .5 1.5.2.4.5.8.8 1.2.3.3.7.6 1.2.8.4.2 1 .3 1.5.3.8 0 1.5-.2 2-.5s1-.8 1.3-1.3c.3-.6.6-1.2.7-1.9s.2-1.5.2-2.3v-4.5zm9.7 10.3c0-.4.1-.7.3-.9.2-.2.5-.4.9-.4s.7.1 1 .4c.2.2.3.6.3.9s-.1.6-.3.9c-.2.2-.6.3-1 .3s-.7-.1-.9-.3c-.2-.2-.3-.5-.3-.9zm21.7-6.2c0 1-.1 2-.3 2.9-.2.9-.6 1.7-1.1 2.4-.5.7-1.1 1.2-1.8 1.6-.7.4-1.6.6-2.6.6s-1.9-.2-2.6-.6c-.7-.4-1.3-.9-1.8-1.6-.5-.7-.8-1.5-1.1-2.4-.2-.9-.4-1.9-.4-2.9v-3.8c0-1 .1-2 .4-2.9.2-.9.6-1.7 1.1-2.4.5-.7 1.1-1.2 1.8-1.6.7-.4 1.6-.6 2.6-.6s1.9.2 2.6.6c.7.4 1.3.9 1.8 1.6.5.7.8 1.5 1.1 2.4.2.9.3 1.9.3 2.9v3.8zm-10.1.2v1l8.3-7.6c-.1-.5-.3-1-.5-1.5s-.5-.9-.8-1.2c-.3-.3-.7-.6-1.2-.8s-1-.3-1.6-.3c-.8 0-1.5.2-2 .5s-1 .8-1.3 1.3c-.3.6-.6 1.2-.7 1.9s-.2 1.5-.2 2.3v4.4zm8.6-4.3v-.8l-8.3 7.5c.1.5.3 1 .5 1.5.2.4.5.8.8 1.2.3.3.7.6 1.2.8.4.2 1 .3 1.5.3.8 0 1.5-.2 2-.5s1-.8 1.3-1.3c.3-.6.6-1.2.7-1.9s.2-1.5.2-2.3v-4.5zm12.2 11.4h-1.5v-16.6l-5.1 2.2v-1.4l6.4-2.7h.2v18.5zm18.8 0h-11.6v-1.2l6.1-6.9c.4-.5.9-1 1.2-1.5.4-.5.7-.9 1-1.4.3-.5.5-.9.6-1.4s.2-.9.2-1.4c0-.6-.1-1.1-.3-1.5-.2-.5-.5-.9-.8-1.2-.3-.3-.8-.6-1.2-.8-.5-.2-1-.3-1.6-.3-.7 0-1.2.1-1.7.3s-.9.5-1.3.9-.6.8-.8 1.4c-.2.5-.3 1.1-.3 1.7h-1.5c0-.8.1-1.5.4-2.2.3-.7.7-1.3 1.1-1.8.5-.5 1.1-.9 1.8-1.2.7-.3 1.5-.4 2.3-.4.8 0 1.6.1 2.2.4.7.2 1.2.6 1.7 1s.8 1 1.1 1.6c.3.6.4 1.3.4 2.1 0 .6-.1 1.2-.3 1.8s-.5 1.1-.8 1.7-.7 1.1-1.2 1.6c-.4.5-.9 1-1.3 1.5l-5.2 5.8h9.7v1.4zm13.7-3.5c0-.4-.1-.8-.3-1.1-.2-.3-.5-.6-.9-.8-.4-.2-.8-.4-1.3-.6s-1-.3-1.5-.4c-.7-.1-1.3-.3-1.9-.5-.6-.2-1.2-.4-1.7-.7s-.9-.7-1.2-1.1c-.3-.4-.4-1-.4-1.6 0-.6.1-1.1.4-1.6.3-.5.7-.9 1.2-1.2s1-.6 1.7-.7c.6-.2 1.3-.2 1.9-.2.7 0 1.4.1 2.1.3.6.2 1.2.4 1.7.8s.9.8 1.2 1.3c.3.5.4 1.1.5 1.7h-1.5c0-.4-.1-.8-.4-1.2-.2-.4-.5-.6-.9-.9-.4-.2-.8-.4-1.2-.5-.5-.1-.9-.2-1.4-.2-.5 0-.9 0-1.3.1s-.8.2-1.2.4c-.3.2-.6.4-.8.8-.2.3-.3.7-.3 1.1 0 .4.1.8.3 1.1.2.3.5.5.8.7.4.2.8.4 1.3.5.5.1 1 .3 1.5.4.7.1 1.4.3 2 .5.6.2 1.2.5 1.7.8.5.3.9.7 1.1 1.1s.4 1 .4 1.6c0 .6-.2 1.2-.5 1.7s-.7.9-1.2 1.2c-.5.3-1.1.6-1.7.7-.6.2-1.3.2-2 .2-.8 0-1.5-.1-2.2-.3-.7-.2-1.3-.5-1.8-.8-.5-.4-.9-.8-1.3-1.3-.3-.5-.5-1.1-.5-1.7h1.5c.1.5.2 1 .5 1.4.3.4.6.7 1 .9.4.2.8.4 1.3.5.5.1.9.1 1.4.1.5 0 .9 0 1.4-.1.5-.1.9-.2 1.2-.4.4-.2.7-.5.9-.8.3-.4.4-.8.4-1.2zm-179.4 41.3h-4l-1 5.2H176l1-5.2h-3.2v-1.2h3.5l1.1-5.6h-3.5v-1.2h3.8l1-5.3h1.3l-1 5.3h4l1-5.3h1.3l-1 5.3h2.9v1.2h-3.1l-1.1 5.6h3.2v1.2h-3.5l-1 5.2h-1.3l.8-5.2zm-3.8-1.2h4l1.1-5.6h-4l-1.1 5.6zm26.2-12.1h10.7v1.4h-4.6v15.8h4.6v1.3h-10.7v-1.3h4.5v-15.8h-4.5v-1.4zm16.4 4.8.1 2.6c.5-.9 1.1-1.5 1.9-2 .8-.5 1.7-.8 2.7-.8 1.5 0 2.7.5 3.5 1.4.8.9 1.2 2.2 1.2 3.8v8.8h-1.5v-8.8c0-1.3-.3-2.2-.9-2.9-.6-.7-1.4-1-2.6-1-.5 0-1 .1-1.4.2s-.9.4-1.2.7-.7.6-1 1c-.3.4-.5.8-.7 1.2v9.5h-1.5v-13.7h1.4zm23.1 10.2c0-.4-.1-.8-.3-1.1-.2-.3-.5-.6-.9-.8-.4-.2-.8-.4-1.3-.6s-1-.3-1.5-.4c-.7-.1-1.3-.3-1.9-.5-.6-.2-1.2-.4-1.7-.7s-.9-.7-1.2-1.1c-.3-.4-.4-1-.4-1.6 0-.6.1-1.1.4-1.6.3-.5.7-.9 1.2-1.2s1-.6 1.7-.7c.6-.2 1.3-.2 1.9-.2.7 0 1.4.1 2.1.3.6.2 1.2.4 1.7.8s.9.8 1.2 1.3c.3.5.4 1.1.5 1.7H244c0-.4-.1-.8-.4-1.2-.2-.4-.5-.6-.9-.9-.4-.2-.8-.4-1.2-.5-.5-.1-.9-.2-1.4-.2-.5 0-.9 0-1.3.1s-.8.2-1.2.4c-.3.2-.6.4-.8.8-.2.3-.3.7-.3 1.1 0 .4.1.8.3 1.1.2.3.5.5.8.7.4.2.8.4 1.3.5.5.1 1 .3 1.5.4.7.1 1.4.3 2 .5.6.2 1.2.5 1.7.8.5.3.9.7 1.1 1.1s.4 1 .4 1.6c0 .6-.2 1.2-.5 1.7s-.7.9-1.2 1.2c-.5.3-1.1.6-1.7.7-.6.2-1.3.2-2 .2-.8 0-1.5-.1-2.2-.3-.7-.2-1.3-.5-1.8-.8-.5-.4-.9-.8-1.3-1.3-.3-.5-.5-1.1-.5-1.7h1.5c.1.5.2 1 .5 1.4.3.4.6.7 1 .9.4.2.8.4 1.3.5.5.1.9.1 1.4.1.5 0 .9 0 1.4-.1.5-.1.9-.2 1.2-.4.4-.2.7-.5.9-.8.4-.4.5-.8.5-1.2zm10.5-13.8v3.5h5.1v1.2h-5.1v8.6c0 .5.1 1 .2 1.3.2.4.4.6.6.8.3.2.6.4.9.5.4.1.8.1 1.2.1.4 0 .9 0 1.3-.1s.8-.1 1.1-.2l.2 1.2c-.4.1-.8.3-1.3.3-.5.1-1.1.1-1.6.1-.6 0-1.2-.1-1.7-.2s-1-.4-1.3-.7c-.4-.3-.7-.7-.9-1.3-.2-.5-.3-1.2-.3-1.9v-8.6h-3.8V471h3.8v-3.5h1.6zm19.3 17.3c-.1-.3-.2-.6-.2-.9-.1-.3-.1-.7-.1-1l-.9.9c-.3.3-.7.5-1.1.7-.4.2-.9.4-1.3.5-.5.1-1 .2-1.5.2-.6 0-1.2-.1-1.8-.3-.6-.2-1-.4-1.4-.8-.4-.3-.7-.7-1-1.2-.2-.5-.3-1-.3-1.6 0-.8.2-1.5.5-2s.8-1 1.4-1.3c.6-.3 1.3-.6 2.1-.8.8-.2 1.6-.2 2.5-.2h3v-1.6c0-.5-.1-1-.3-1.4-.2-.4-.5-.7-.8-1-.3-.3-.7-.5-1.2-.6-.5-.1-1-.2-1.5-.2s-1 .1-1.4.2-.8.3-1.2.5-.6.5-.8.9c-.2.3-.3.7-.3 1.2h-1.5c0-.6.2-1.1.5-1.6s.7-.9 1.1-1.3c.5-.4 1-.6 1.7-.8.6-.2 1.3-.3 2-.3s1.4.1 2.1.3c.6.2 1.2.5 1.7.8s.8.8 1.1 1.4c.3.6.4 1.2.4 2v6.7c0 .5 0 .9.1 1.4.1.5.2.9.3 1.3v.2h-1.9zm-5-1.1c.5 0 1-.1 1.5-.2s.9-.3 1.3-.6c.4-.2.8-.5 1.1-.9.3-.3.6-.7.7-1.1v-3h-2.8c-.7 0-1.3.1-1.9.2-.6.1-1.2.3-1.6.5-.5.2-.9.5-1.1.9-.3.4-.4.9-.4 1.5 0 .4.1.8.3 1.1.2.3.4.6.7.8.3.2.6.4 1 .5.3.2.7.3 1.2.3zm11.9-12.6.1 2.6c.5-.9 1.1-1.5 1.9-2 .8-.5 1.7-.8 2.7-.8 1.5 0 2.7.5 3.5 1.4.8.9 1.2 2.2 1.2 3.8v8.8h-1.5v-8.8c0-1.3-.3-2.2-.9-2.9-.6-.7-1.4-1-2.6-1-.5 0-1 .1-1.4.2s-.9.4-1.2.7-.7.6-1 1c-.3.4-.5.8-.7 1.2v9.5h-1.5v-13.7h1.4zm18.6-3.6v3.5h5.1v1.2h-5.1v8.6c0 .5.1 1 .2 1.3.2.4.4.6.6.8.3.2.6.4.9.5.4.1.8.1 1.2.1.4 0 .9 0 1.3-.1s.8-.1 1.1-.2l.2 1.2c-.4.1-.8.3-1.3.3-.5.1-1.1.1-1.6.1-.6 0-1.2-.1-1.7-.2s-1-.4-1.3-.7c-.4-.3-.7-.7-.9-1.3-.2-.5-.3-1.2-.3-1.9v-8.6H294V471h3.8v-3.5h1.6zm33.8 13.8c0-.4-.1-.8-.3-1.1-.2-.3-.5-.6-.9-.8-.4-.2-.8-.4-1.3-.6s-1-.3-1.5-.4c-.7-.1-1.3-.3-1.9-.5-.6-.2-1.2-.4-1.7-.7s-.9-.7-1.2-1.1c-.3-.4-.4-1-.4-1.6 0-.6.1-1.1.4-1.6.3-.5.7-.9 1.2-1.2s1-.6 1.7-.7c.6-.2 1.3-.2 1.9-.2.7 0 1.4.1 2.1.3.6.2 1.2.4 1.7.8s.9.8 1.2 1.3c.3.5.4 1.1.5 1.7h-1.5c0-.4-.1-.8-.4-1.2-.2-.4-.5-.6-.9-.9-.4-.2-.8-.4-1.2-.5-.5-.1-.9-.2-1.4-.2-.5 0-.9 0-1.3.1s-.8.2-1.2.4c-.3.2-.6.4-.8.8-.2.3-.3.7-.3 1.1 0 .4.1.8.3 1.1.2.3.5.5.8.7.4.2.8.4 1.3.5.5.1 1 .3 1.5.4.7.1 1.4.3 2 .5.6.2 1.2.5 1.7.8.5.3.9.7 1.1 1.1s.4 1 .4 1.6c0 .6-.2 1.2-.5 1.7s-.7.9-1.2 1.2c-.5.3-1.1.6-1.7.7-.6.2-1.3.2-2 .2-.8 0-1.5-.1-2.2-.3-.7-.2-1.3-.5-1.8-.8-.5-.4-.9-.8-1.3-1.3-.3-.5-.5-1.1-.5-1.7h1.5c.1.5.2 1 .5 1.4.3.4.6.7 1 .9.4.2.8.4 1.3.5.5.1.9.1 1.4.1.5 0 .9 0 1.4-.1.5-.1.9-.2 1.2-.4.4-.2.7-.5.9-.8.3-.4.4-.8.4-1.2zm10.4-13.8v3.5h5.1v1.2h-5.1v8.6c0 .5.1 1 .2 1.3.2.4.4.6.6.8.3.2.6.4.9.5.4.1.8.1 1.2.1.4 0 .9 0 1.3-.1s.8-.1 1.1-.2l.2 1.2c-.4.1-.8.3-1.3.3-.5.1-1.1.1-1.6.1-.6 0-1.2-.1-1.7-.2s-1-.4-1.3-.7c-.4-.3-.7-.7-.9-1.3-.2-.5-.3-1.2-.3-1.9v-8.6h-3.8V471h3.8v-3.5h1.6zm19.4 17.3c-.1-.3-.2-.6-.2-.9-.1-.3-.1-.7-.1-1l-.9.9c-.3.3-.7.5-1.1.7-.4.2-.9.4-1.3.5-.5.1-1 .2-1.5.2-.6 0-1.2-.1-1.8-.3-.6-.2-1-.4-1.4-.8-.4-.3-.7-.7-1-1.2-.2-.5-.3-1-.3-1.6 0-.8.2-1.5.5-2s.8-1 1.4-1.3c.6-.3 1.3-.6 2.1-.8.8-.2 1.6-.2 2.5-.2h3v-1.6c0-.5-.1-1-.3-1.4-.2-.4-.5-.7-.8-1-.3-.3-.7-.5-1.2-.6-.5-.1-1-.2-1.5-.2s-1 .1-1.4.2-.8.3-1.2.5-.6.5-.8.9c-.2.3-.3.7-.3 1.2h-1.5c0-.6.2-1.1.5-1.6s.7-.9 1.1-1.3c.5-.4 1-.6 1.7-.8.6-.2 1.3-.3 2.1-.3.7 0 1.4.1 2 .3.6.2 1.2.5 1.7.8s.8.8 1.1 1.4c.3.6.4 1.2.4 2v6.7c0 .5 0 .9.1 1.4.1.5.2.9.3 1.3v.2H363zm-5.1-1.1c.5 0 1-.1 1.5-.2s.9-.3 1.3-.6c.4-.2.8-.5 1.1-.9.3-.3.6-.7.7-1.1v-3h-2.8c-.7 0-1.3.1-1.9.2-.6.1-1.2.3-1.6.5-.5.2-.9.5-1.1.9-.3.4-.4.9-.4 1.5 0 .4.1.8.3 1.1.2.3.4.6.7.8.3.2.6.4 1 .5.4.2.8.3 1.2.3zm19.6-12.9c.4 0 .8 0 1.1.1.4 0 .7.1 1 .2l-.2 1.5c-.4-.1-.7-.1-1.1-.2s-.7-.1-1.1-.1c-1.3 0-2.4.3-3.3.9-.9.6-1.5 1.5-1.9 2.8v8.8h-1.6v-13.7h1.5l.1 2.4v.3c.6-.9 1.3-1.6 2.2-2.1 1.1-.6 2.1-.9 3.3-.9zm11-3.3v3.5h5.1v1.2h-5.1v8.6c0 .5.1 1 .2 1.3.2.4.4.6.6.8.3.2.6.4.9.5.4.1.8.1 1.2.1.4 0 .9 0 1.3-.1s.8-.1 1.1-.2l.2 1.2c-.4.1-.8.3-1.3.3-.5.1-1.1.1-1.6.1-.6 0-1.2-.1-1.7-.2s-1-.4-1.3-.7c-.4-.3-.7-.7-.9-1.3-.2-.5-.3-1.2-.3-1.9v-8.6h-3.8V471h3.8v-3.5h1.6zm19.1 15.1c-.5.8-1.1 1.3-1.8 1.8s-1.6.6-2.7.6c-.8 0-1.4-.1-2-.4-.6-.2-1.1-.6-1.5-1.1s-.7-1.1-.9-1.7c-.2-.7-.3-1.5-.3-2.3v-8.5h1.5v8.5c0 1.4.3 2.4.8 3.1.5.7 1.4 1.1 2.5 1.1s2.1-.3 2.8-.8 1.2-1.2 1.5-2.1v-9.8h1.5v13.7h-1.4v-2.1zm16.8-4.5c0 .9-.1 1.8-.3 2.6-.2.8-.5 1.6-1 2.2-.4.6-1 1.2-1.7 1.6-.7.4-1.5.6-2.4.6-.9 0-1.6-.2-2.3-.5s-1.3-.8-1.8-1.4v7h-1.5v-19h1.4l.1 1.9c.5-.7 1.1-1.2 1.8-1.6.7-.4 1.5-.6 2.4-.6.9 0 1.8.2 2.4.6.7.4 1.2.9 1.7 1.5.4.6.8 1.4 1 2.2.2.8.3 1.7.3 2.6v.3zm-1.5-.3c0-.7-.1-1.4-.2-2s-.4-1.3-.7-1.8c-.3-.5-.8-1-1.3-1.3-.5-.3-1.2-.5-2-.5-.4 0-.9.1-1.2.2-.4.1-.7.3-1.1.5-.3.2-.6.5-.9.8-.2.3-.5.7-.6 1v6.8c.4.7.9 1.3 1.5 1.7s1.4.6 2.3.6c.8 0 1.4-.2 2-.5.5-.3 1-.8 1.3-1.3.3-.5.6-1.1.7-1.8.2-.7.2-1.4.2-2.1v-.3zm12.4 6.5c0 .4 0 .7-.1 1.1-.1.4-.2.7-.3 1.1-.1.4-.3.7-.6 1-.2.3-.5.6-.8.9l-1-.6c.7-1.1 1.1-2.2 1.1-3.5v-2h1.6v2zm-2-11.7c0-.4.1-.7.3-.9.2-.2.5-.4.9-.4s.7.1 1 .4c.2.2.3.6.3.9s-.1.6-.3.9c-.2.2-.6.3-1 .3s-.7-.1-.9-.3c-.1-.3-.3-.6-.3-.9zm29.8 11.2c.5 0 1-.1 1.5-.2s.9-.4 1.2-.6.6-.6.9-1c.2-.4.4-.8.4-1.3h1.5c0 .7-.2 1.3-.5 1.8s-.7 1-1.2 1.4c-.5.4-1.1.7-1.7.9-.6.2-1.3.3-2 .3-1 0-1.9-.2-2.6-.6-.7-.4-1.4-.9-1.9-1.5s-.9-1.4-1.1-2.2c-.2-.8-.4-1.7-.4-2.6v-.5c0-.9.1-1.7.4-2.6.2-.8.6-1.6 1.1-2.2s1.1-1.1 1.9-1.5c.7-.4 1.6-.6 2.6-.6.8 0 1.5.1 2.1.4.6.2 1.2.6 1.7 1s.9 1 1.1 1.5c.3.6.4 1.3.5 2H467c0-.5-.1-1-.4-1.4-.2-.4-.5-.8-.8-1.1-.3-.3-.8-.6-1.2-.7s-1-.3-1.5-.3c-.8 0-1.5.2-2 .5-.6.3-1 .7-1.4 1.3s-.6 1.1-.8 1.8c-.2.7-.2 1.3-.2 2v.5c0 .7.1 1.4.2 2s.4 1.3.8 1.8.8.9 1.4 1.3c.5.2 1.2.4 2 .4zm8.6-6.1c0-.9.2-1.8.4-2.7s.7-1.6 1.2-2.2c.5-.6 1.2-1.1 1.9-1.5.8-.4 1.6-.6 2.6-.6s1.8.2 2.6.6c.8.4 1.4.9 1.9 1.5s.9 1.4 1.2 2.2.4 1.7.4 2.7v.4c0 .9-.2 1.8-.4 2.7-.3.8-.7 1.6-1.2 2.2-.5.6-1.2 1.1-1.9 1.5-.8.4-1.6.6-2.6.6s-1.8-.2-2.6-.6c-.8-.4-1.4-.9-1.9-1.5s-.9-1.4-1.2-2.2-.4-1.7-.4-2.7v-.4zm1.5.4c0 .7.1 1.4.3 2.1s.5 1.3.9 1.8.9.9 1.4 1.2 1.2.5 2 .5c.7 0 1.4-.2 2-.5s1-.7 1.4-1.2c.4-.5.7-1.1.9-1.8s.3-1.4.3-2.1v-.4c0-.7-.1-1.4-.3-2.1s-.5-1.3-.9-1.8-.9-.9-1.4-1.3c-.6-.3-1.2-.5-2-.5-.7 0-1.4.2-2 .5-.6.3-1 .7-1.4 1.3-.4.5-.7 1.1-.9 1.8s-.3 1.4-.3 2.1v.4zm14.3-7v1.5c.3-.5.7-1 1.1-1.3.5-.3 1.1-.5 1.8-.5.4 0 .7 0 1 .1.3.1.6.2.8.4l.6.6c.2.2.3.5.4.7.3-.5.7-.9 1.2-1.3.5-.3 1.1-.5 1.9-.5.6 0 1.1.1 1.5.3.4.2.7.5 1 .8.2.3.4.7.5 1.2.1.5.2.9.2 1.4v10.2H498v-10.2c0-.3 0-.6-.1-.9-.1-.3-.2-.6-.3-.8-.1-.2-.4-.4-.6-.6s-.6-.2-1-.2-.8.1-1.1.2-.5.3-.7.5-.3.4-.4.7c-.1.2-.2.5-.2.8v10.5h-1.4v-10.3c0-.3 0-.6-.1-.9-.1-.3-.2-.5-.3-.7-.1-.2-.4-.4-.6-.5-.3-.1-.6-.2-1-.2s-.8.1-1 .2c-.3.1-.5.3-.7.5-.2.2-.3.4-.5.7-.1.3-.2.5-.3.8v10.5h-1.4v-13.7h1.2zm26 7c0 .9-.1 1.8-.3 2.6-.2.8-.5 1.6-1 2.2-.4.6-1 1.2-1.7 1.6-.7.4-1.5.6-2.4.6-.9 0-1.6-.2-2.3-.5s-1.3-.8-1.8-1.4v7h-1.5v-19h1.4l.1 1.9c.5-.7 1.1-1.2 1.8-1.6.7-.4 1.5-.6 2.4-.6.9 0 1.8.2 2.4.6.7.4 1.2.9 1.7 1.5.4.6.8 1.4 1 2.2.2.8.3 1.7.3 2.6v.3zm-1.5-.3c0-.7-.1-1.4-.2-2s-.4-1.3-.7-1.8c-.3-.5-.8-1-1.3-1.3-.5-.3-1.2-.5-2-.5-.4 0-.9.1-1.2.2-.4.1-.7.3-1.1.5-.3.2-.6.5-.9.8-.2.3-.5.7-.6 1v6.8c.4.7.9 1.3 1.5 1.7s1.4.6 2.3.6c.8 0 1.4-.2 2-.5.5-.3 1-.8 1.3-1.3.3-.5.6-1.1.7-1.8.2-.7.2-1.4.2-2.1v-.3zm5.7-12.5h6.4v18.2h4.6v1.3h-11v-1.3h4.9v-16.8h-4.9v-1.4zm20.5 19.7c-1 0-1.8-.2-2.6-.5s-1.5-.8-2-1.4c-.6-.6-1-1.3-1.3-2.1-.3-.8-.5-1.7-.5-2.6v-.5c0-1 .2-1.9.5-2.7s.8-1.6 1.3-2.2c.6-.6 1.2-1.1 1.9-1.5.7-.4 1.5-.5 2.4-.5.9 0 1.7.2 2.4.5s1.3.8 1.8 1.4c.5.6.8 1.2 1.1 2 .2.8.4 1.6.4 2.5v.9h-10.3v.3c0 .7.1 1.4.4 2.1.2.7.6 1.2 1 1.7s1 .9 1.6 1.2c.6.3 1.3.5 2 .5.8 0 1.6-.1 2.3-.5s1.3-.8 1.8-1.4l1 .7c-.3.4-.6.7-.9 1-.3.3-.7.6-1.2.8-.4.2-.9.4-1.4.5s-1.2-.2-1.7-.2zm-.3-12.9c-.6 0-1.2.1-1.7.3-.5.2-1 .6-1.4 1-.4.4-.7.9-1 1.5-.3.6-.4 1.2-.5 1.8h8.7v-.2c0-.6-.1-1.1-.3-1.7-.2-.5-.5-1-.8-1.4-.4-.4-.8-.7-1.3-1s-1.1-.3-1.7-.3zm14.4-4.6v3.5h5.1v1.2h-5.1v8.6c0 .5.1 1 .2 1.3.2.4.4.6.6.8.3.2.6.4.9.5.4.1.8.1 1.2.1.4 0 .9 0 1.3-.1s.8-.1 1.1-.2l.2 1.2c-.4.1-.8.3-1.3.3-.5.1-1.1.1-1.6.1-.6 0-1.2-.1-1.7-.2s-1-.4-1.3-.7c-.4-.3-.7-.7-.9-1.3-.2-.5-.3-1.2-.3-1.9v-8.6h-3.8V471h3.8v-3.5h1.6zm15.8 17.5c-1 0-1.8-.2-2.6-.5s-1.5-.8-2-1.4c-.6-.6-1-1.3-1.3-2.1-.3-.8-.5-1.7-.5-2.6v-.5c0-1 .2-1.9.5-2.7s.8-1.6 1.3-2.2c.5-.6 1.2-1.1 1.9-1.5.7-.4 1.5-.5 2.4-.5.9 0 1.7.2 2.4.5s1.3.8 1.8 1.4c.5.6.8 1.2 1.1 2 .2.8.4 1.6.4 2.5v.9h-10.3v.3c0 .7.1 1.4.4 2.1.2.7.6 1.2 1 1.7s1 .9 1.6 1.2c.6.3 1.3.5 2 .5.8 0 1.6-.1 2.3-.5s1.3-.8 1.8-1.4l1 .7c-.3.4-.6.7-.9 1-.3.3-.7.6-1.2.8-.4.2-.9.4-1.4.5s-1.2-.2-1.7-.2zm-.3-12.9c-.6 0-1.2.1-1.7.3-.5.2-1 .6-1.4 1-.4.4-.7.9-1 1.5-.3.6-.4 1.2-.5 1.8h8.7v-.2c0-.6-.1-1.1-.3-1.7-.2-.5-.5-1-.8-1.4-.4-.4-.8-.7-1.3-1s-1.1-.3-1.7-.3zm8.9 5.7c0-.9.1-1.8.3-2.6.2-.8.6-1.6 1-2.2.5-.6 1-1.2 1.7-1.5.7-.4 1.5-.6 2.4-.6.9 0 1.7.2 2.3.6.7.4 1.3.9 1.7 1.6v-7.6h1.5v19.5h-1.4l-.1-1.8c-.5.7-1.1 1.2-1.8 1.5-.7.4-1.5.5-2.3.5-.9 0-1.7-.2-2.4-.6-.7-.4-1.2-.9-1.7-1.6-.5-.6-.8-1.4-1-2.2-.2-.8-.3-1.7-.3-2.6v-.4zm1.5.3c0 .7.1 1.4.2 2 .1.7.4 1.3.7 1.8.3.5.8 1 1.3 1.3s1.2.5 2 .5c.4 0 .8-.1 1.2-.2.4-.1.7-.3 1.1-.5.3-.2.6-.5.9-.8.3-.3.5-.6.7-1v-6.7c-.2-.4-.4-.7-.6-1-.2-.3-.5-.6-.9-.8-.3-.2-.7-.4-1.1-.5-.4-.1-.8-.2-1.2-.2-.8 0-1.4.2-2 .5-.5.3-1 .8-1.3 1.3-.3.5-.6 1.1-.7 1.8-.1.7-.2 1.4-.2 2v.5zm28.6-7h6.4v12.4h4.7v1.3h-11v-1.3h4.8v-11h-4.8v-1.4zm4.4-3.8c0-.3.1-.6.3-.8s.5-.3.9-.3.7.1.9.3c.2.2.3.5.3.8 0 .3-.1.6-.3.8-.2.2-.5.3-.9.3s-.7-.1-.9-.3c-.3-.2-.3-.5-.3-.8zm11.5 3.8.1 2.6c.5-.9 1.1-1.5 1.9-2 .8-.5 1.7-.8 2.7-.8 1.5 0 2.7.5 3.5 1.4.8.9 1.2 2.2 1.2 3.8v8.8h-1.5v-8.8c0-1.3-.3-2.2-.9-2.9-.6-.7-1.4-1-2.6-1-.5 0-1 .1-1.4.2s-.9.4-1.2.7-.7.6-1 1c-.3.4-.5.8-.7 1.2v9.5h-1.5v-13.7h1.4zm29.3 0h6.5v13.7c0 .9-.1 1.6-.3 2.3-.2.7-.6 1.3-1 1.7-.4.5-1 .8-1.6 1.1-.6.3-1.4.4-2.2.4h-1.3c-.4 0-.8-.1-1.3-.2l.1-1.3c.2 0 .3 0 .6.1.2 0 .5 0 .7.1h1.2c.5 0 1-.1 1.4-.2s.9-.4 1.2-.7c.3-.3.6-.8.8-1.3.2-.5.3-1.2.3-2v-12.4h-5v-1.3zm4.4-3.8c0-.3.1-.6.3-.8.2-.2.5-.3.9-.3s.7.1.9.3c.2.2.3.5.3.8 0 .3-.1.6-.3.8-.2.2-.5.3-.9.3s-.7-.1-.9-.3c-.2-.3-.3-.5-.3-.8zm18.4 15.3c-.5.8-1.1 1.3-1.8 1.8s-1.6.6-2.7.6c-.8 0-1.4-.1-2-.4-.6-.2-1.1-.6-1.5-1.1s-.7-1.1-.9-1.7c-.2-.7-.3-1.5-.3-2.3v-8.5h1.5v8.5c0 1.4.3 2.4.8 3.1.5.7 1.4 1.1 2.5 1.1s2.1-.3 2.8-.8 1.2-1.2 1.5-2.1v-9.8h1.5v13.7h-1.4v-2.1zm15.3-1.3c0-.4-.1-.8-.3-1.1-.2-.3-.5-.6-.9-.8-.4-.2-.8-.4-1.3-.6s-1-.3-1.5-.4c-.7-.1-1.3-.3-1.9-.5-.6-.2-1.2-.4-1.7-.7s-.9-.7-1.2-1.1c-.3-.4-.4-1-.4-1.6 0-.6.1-1.1.4-1.6.3-.5.7-.9 1.2-1.2s1-.6 1.7-.7c.6-.2 1.3-.2 1.9-.2.7 0 1.4.1 2.1.3.6.2 1.2.4 1.7.8s.9.8 1.2 1.3c.3.5.4 1.1.5 1.7H690c0-.4-.1-.8-.4-1.2-.2-.4-.5-.6-.9-.9-.4-.2-.8-.4-1.2-.5-.5-.1-.9-.2-1.4-.2-.5 0-.9 0-1.3.1s-.8.2-1.2.4c-.3.2-.6.4-.8.8-.2.3-.3.7-.3 1.1 0 .4.1.8.3 1.1.2.3.5.5.8.7.4.2.8.4 1.2.5.5.1 1 .3 1.5.4.7.1 1.4.3 2 .5.6.2 1.2.5 1.7.8.5.3.9.7 1.1 1.1s.4 1 .4 1.6c0 .6-.2 1.2-.5 1.7s-.7.9-1.2 1.2c-.5.3-1.1.6-1.7.7-.6.2-1.3.2-2 .2-.8 0-1.5-.1-2.2-.3-.7-.2-1.3-.5-1.8-.8-.5-.4-.9-.8-1.2-1.3-.3-.5-.5-1.1-.5-1.7h1.5c.1.5.2 1 .5 1.4.3.4.6.7 1 .9.4.2.8.4 1.3.5.5.1.9.1 1.4.1.5 0 .9 0 1.4-.1.5-.1.9-.2 1.2-.4.4-.2.7-.5.9-.8.4-.4.5-.8.5-1.2zm10.4-13.8v3.5h5.1v1.2h-5.1v8.6c0 .5.1 1 .2 1.3.2.4.4.6.6.8.3.2.6.4.9.5.4.1.8.1 1.2.1.4 0 .9 0 1.3-.1s.8-.1 1.1-.2l.2 1.2c-.4.1-.8.3-1.3.3-.5.1-1.1.1-1.6.1-.6 0-1.2-.1-1.7-.2s-1-.4-1.3-.7c-.4-.3-.7-.7-.9-1.3-.2-.5-.3-1.2-.3-1.9v-8.6h-3.8V471h3.8v-3.5h1.6zm31.2 17.3h-1.5v-16.6l-5.1 2.2v-1.4l6.4-2.7h.2v18.5zm19.7 0h-11.6v-1.2l6.1-6.9c.4-.5.9-1 1.2-1.5.4-.5.7-.9 1-1.4.3-.5.5-.9.6-1.4s.2-.9.2-1.4c0-.6-.1-1.1-.3-1.5-.2-.5-.5-.9-.8-1.2-.3-.3-.8-.6-1.2-.8-.5-.2-1-.3-1.6-.3-.7 0-1.2.1-1.7.3s-.9.5-1.3.9-.6.8-.8 1.4c-.2.5-.3 1.1-.3 1.7h-1.5c0-.8.1-1.5.4-2.2.3-.7.7-1.3 1.1-1.8.5-.5 1.1-.9 1.8-1.2.7-.3 1.5-.4 2.3-.4.8 0 1.6.1 2.2.4.7.2 1.2.6 1.7 1s.8 1 1.1 1.6c.3.6.4 1.3.4 2.1 0 .6-.1 1.2-.3 1.8s-.5 1.1-.8 1.7-.7 1.1-1.2 1.6c-.4.5-.9 1-1.3 1.5l-5.2 5.8h9.7v1.4zm5.1-13.7v1.5c.3-.5.7-1 1.1-1.3.5-.3 1.1-.5 1.8-.5.4 0 .7 0 1 .1.3.1.6.2.8.4l.6.6c.2.2.3.5.4.7.3-.5.7-.9 1.2-1.3.5-.3 1.1-.5 1.9-.5.6 0 1.1.1 1.5.3.4.2.7.5 1 .8.2.3.4.7.5 1.2.1.5.2.9.2 1.4v10.2H767v-10.2c0-.3 0-.6-.1-.9-.1-.3-.2-.6-.3-.8-.1-.2-.4-.4-.6-.6s-.6-.2-1-.2-.8.1-1.1.2-.5.3-.7.5-.3.4-.4.7c-.1.2-.2.5-.2.8v10.5h-1.4v-10.3c0-.3 0-.6-.1-.9-.1-.3-.2-.5-.3-.7-.1-.2-.4-.4-.6-.5-.3-.1-.6-.2-1-.2s-.8.1-1 .2c-.3.1-.5.3-.7.5-.2.2-.3.4-.5.7-.1.3-.2.5-.3.8v10.5h-1.4v-13.7h1.2zm25.1 10.2c0-.4-.1-.8-.3-1.1-.2-.3-.5-.6-.9-.8-.4-.2-.8-.4-1.3-.6s-1-.3-1.5-.4c-.7-.1-1.3-.3-1.9-.5-.6-.2-1.2-.4-1.7-.7s-.9-.7-1.2-1.1c-.3-.4-.4-1-.4-1.6 0-.6.1-1.1.4-1.6.3-.5.7-.9 1.2-1.2s1-.6 1.7-.7c.6-.2 1.3-.2 1.9-.2.7 0 1.4.1 2.1.3.6.2 1.2.4 1.7.8s.9.8 1.2 1.3c.3.5.4 1.1.5 1.7h-1.5c0-.4-.1-.8-.4-1.2-.2-.4-.5-.6-.9-.9-.4-.2-.8-.4-1.2-.5-.5-.1-.9-.2-1.4-.2-.5 0-.9 0-1.3.1s-.8.2-1.2.4c-.3.2-.6.4-.8.8-.2.3-.3.7-.3 1.1 0 .4.1.8.3 1.1.2.3.5.5.8.7.4.2.8.4 1.2.5.5.1 1 .3 1.5.4.7.1 1.4.3 2 .5.6.2 1.2.5 1.7.8.5.3.9.7 1.1 1.1s.4 1 .4 1.6c0 .6-.2 1.2-.5 1.7s-.7.9-1.2 1.2c-.5.3-1.1.6-1.7.7-.6.2-1.3.2-2 .2-.8 0-1.5-.1-2.2-.3-.7-.2-1.3-.5-1.8-.8-.5-.4-.9-.8-1.2-1.3-.3-.5-.5-1.1-.5-1.7h1.5c.1.5.2 1 .5 1.4.3.4.6.7 1 .9.4.2.8.4 1.3.5.5.1.9.1 1.4.1.5 0 .9 0 1.4-.1.5-.1.9-.2 1.2-.4.4-.2.7-.5.9-.8.3-.4.4-.8.4-1.2zm-596.5 41.9c0-.5-.1-1-.3-1.4-.2-.4-.5-.8-.9-1.1-.4-.3-.8-.6-1.3-.8-.5-.2-1-.5-1.6-.7-.7-.2-1.4-.5-2-.8s-1.2-.7-1.6-1.1-.8-.9-1.1-1.5c-.3-.6-.4-1.2-.4-2 0-.7.1-1.4.4-1.9.2-.6.6-1.1 1-1.5s.9-.7 1.5-1c.6-.2 1.2-.4 1.9-.5v-2.6h1.3v2.6c.7.1 1.4.2 1.9.5s1.1.7 1.5 1.2c.4.5.7 1.1.9 1.7s.3 1.4.3 2.2H185c0-.6-.1-1.2-.3-1.8s-.4-1-.8-1.4-.7-.7-1.2-.9c-.5-.2-1-.3-1.6-.3-.5 0-1 .1-1.5.2-.5.2-.9.4-1.2.7s-.6.7-.8 1.1c-.2.4-.3.9-.3 1.5s.1 1.1.3 1.5c.2.4.5.8.9 1.1.4.3.8.6 1.3.8.5.2 1.1.5 1.7.7.7.2 1.4.5 2 .8.6.3 1.2.6 1.6 1.1.5.4.8.9 1.1 1.5.3.6.4 1.2.4 2 0 .7-.1 1.4-.4 1.9-.2.6-.6 1.1-1 1.5-.4.4-.9.7-1.5 1-.6.2-1.2.4-1.9.4v2.4h-1.3V528c-.7-.1-1.4-.2-2-.4-.6-.2-1.2-.6-1.7-1-.5-.5-.9-1-1.2-1.7-.3-.7-.4-1.5-.5-2.4h1.5c0 .7.1 1.4.4 1.9.2.5.6 1 1 1.3.4.3.9.6 1.4.8s1.1.2 1.6.2 1.1-.1 1.5-.2c.5-.2.9-.4 1.3-.7s.7-.7.9-1.1c.3-.3.4-.8.4-1.4z"/>
  <path fill="#fff" d="M200.4 500.5H223v39.1h-22.6z" opacity=".4"/>
</svg>
