<svg xmlns="http://www.w3.org/2000/svg" width="805" height="468" viewBox="0 0 805 468" fill="none">
	<path d="m576 343.52.2-.33h-.2v.33Z" fill="#fff"/>
	<path d="m413.78 99.27-10.08 15.59-10.08 15.59 10.08 15.59 10.08 15.6c67 0 121.32 50.88 121.32 113.64 0 45.4-28.42 84.58-69.51 102.78h101.69c22.41-28.92 35.61-64.41 35.61-102.78-.01-97.14-84.65-175.9-189.11-176.01Z" fill="#7BB9FF"/>
	<path d="M666.57 388.92H414.51c-68.45 0-123.94-50.88-123.94-113.64s55.49-113.64 123.94-113.64l-10.29-15.6-10.29-15.59 20.59-31.19h-.22c-106.82 0-193.41 78.81-193.41 176.03 0 97.21 86.59 176.03 193.41 176.03h252.28l20.59-31.2-20.6-31.2Z" fill="#7BB9FF" fill-opacity=".667"/>
	<path d="M337.42 447.24v4.08H117.46v-.01l19.59-31.19-19.59-31.18v-.01h118.98c25.61 28.96 60.85 49.9 100.98 58.31Z" fill="#7BB9FF"/>
	<path d="m389.87 78.25 10.37-9.66h10.96c1.48 0 2.69-1.37 2.69-3.06v-40.4c0-1.69-1.2-3.06-2.69-3.06h-49.78c-1.48 0-2.69 1.37-2.69 3.06v40.41c0 1.69 1.2 3.06 2.69 3.06h28.44v9.65h.01Z" stroke="#7BB9FF" stroke-width="3" stroke-miterlimit="10"/>
	<path d="M450.69 33.46H401.2c-1.48 0-2.67 1.37-2.67 3.06v40.53c0 1.7 1.19 3.07 2.67 3.07h28.28v9.69l10.31-9.69h10.9c1.48 0 2.67-1.37 2.67-3.07V36.52c-.01-1.69-1.2-3.06-2.67-3.06Z" fill="#7BB9FF"/>
	<path d="M438.56 72.72h-5.47l-2.18-6.96h-9.96l-2.06 6.96h-5.34l9.71-30.64h5.32l9.98 30.64ZM429.3 60.6l-3.43-11.37-3.37 11.37h6.8Z" fill="#fff"/>
	<path d="M394.96 30.57v4.45h-3.79c-.14 3.21-1.04 9.02-5.1 15.23 1.65 2 3.65 3.9 6.04 5.37L391 59.58c-2.85-1.76-5.19-4.03-7.09-6.39-2.23 2.75-5.13 5.5-8.9 8.1l-1.21-3.9c3.39-2.32 5.98-4.76 7.98-7.15-3.28-5.04-4.68-9.72-4.77-10.04l2.65-1.71c.02.07 1.3 4.3 4.28 8.85 3.41-5.19 4.19-9.85 4.34-12.33H372.4v-4.45h9.78v-4.04h2.99v4.04l9.79.01Z" fill="#7BB9FF" fill-opacity=".667"/>
	<path d="m52.99 417.45-9.25-4.89 9.25-4.71v-5.01l-13.27 7.64v4.26l13.27 7.68v-4.97Zm8.8-18.31H59l-4.78 26.66h2.72l4.85-26.66Zm14.51 11.38-13.29-7.65v4.94l9.27 4.8-9.27 4.85v4.98l13.29-7.7v-4.22Z" fill="#7BB9FF"/>
	<path d="M22.98 442.87h70.06c1.72 0 3.11-1.86 3.11-4.15v-52.51c0-2.29-1.39-4.15-3.11-4.15H22.98c-1.72 0-3.11 1.86-3.11 4.15v52.51c0 2.29 1.39 4.15 3.11 4.15Zm-.93-56.65c0-.69.42-1.23.93-1.23h70.06c.51 0 .93.56.93 1.23v52.51c0 .69-.42 1.23-.93 1.23H22.98c-.51 0-.93-.56-.93-1.23v-52.51Zm79.64 59.79H69.1c-.3 0-.59.16-.79.45-.21.29-.31.68-.29 1.08l.01.12c0 1.06-.61 1.91-1.36 1.91H49.5c-.75 0-1.36-.86-1.36-1.91l.01-.12c.02-.4-.09-.79-.29-1.08-.21-.29-.49-.45-.79-.45H14.34c-.61 0-1.09.65-1.09 1.45 0 5.39 3.21 9.78 7.15 9.78h75.24c3.94 0 7.15-4.39 7.15-9.78-.02-.8-.5-1.45-1.1-1.45Zm-6.06 8.33H20.39c-2.38 0-4.36-2.33-4.85-5.41h30.54c.41 2.06 1.79 3.57 3.42 3.57h17.16c1.64 0 3.01-1.51 3.42-3.57h30.4c-.48 3.08-2.48 5.41-4.85 5.41Z" fill="#7BB9FF"/>
	<path d="M725.77 426.04s28.46-47.47 64.45-41.85c0 0 3.5 29.92-49.8 55.62l-14.65-13.77Z" stroke="#7BB9FF" stroke-width="3" stroke-miterlimit="10"/>
	<path d="m732.84 432.69 10.35-9.41m-27.18 18.66s-9.1 1.89-6.61 12.42c0 0 8.09 2.28 12.77-7.41m5.07-19.53-5.2 4.96c-.82.78-.84 2.03-.04 2.84l7.44 7.52c.85.86 2.27.94 3.21.18l5.98-4.79-11.39-10.71Zm16.23-23.4-16.38-.3s-20.17 9.19-23.05 16.37l24.37 1.94 15.06-18.01Zm1.93 33.3.26 22.85s15.06-11.83 19-22.5l.19-12.55-19.45 12.2Z" stroke="#7BB9FF" stroke-width="3" stroke-miterlimit="10"/>
	<path d="M773.055 404.522c.088-3.142-2.799-5.771-6.448-5.873-3.649-.102-6.679 2.361-6.767 5.503-.088 3.141 2.799 5.77 6.448 5.872 3.649.103 6.679-2.361 6.767-5.502Z" fill="#fff" stroke="#7BB9FF" stroke-width="3" stroke-miterlimit="10"/>
</svg>
