<svg width="1500" height="1500" viewBox="0 0 1500 1500" fill="none" xmlns="http://www.w3.org/2000/svg">
<path d="M988.697 1230.03C954.884 1221.98 925.903 1198.63 925.903 1198.63L1082.89 1044.06C1082.89 1044.06 1133.61 1126.18 1153.73 1158.38C1159.37 1167.4 1163.41 1175.88 1162.59 1184.14C1161.77 1192.4 1159.05 1197.08 1153.73 1203.46C1145.68 1213.12 1103.82 1232.44 1074.84 1235.66C1045.86 1238.88 1021.49 1237.84 988.697 1230.03Z" fill="#003E9C" stroke="black" stroke-width="31" stroke-linejoin="round"/>
<path d="M318.089 1325.02C333.488 1304.1 343.046 1263.04 343.046 1263.04L504.861 1279.14C504.861 1279.14 510.895 1313.75 508.081 1336.3C505.77 1354.81 498.906 1381.92 482.32 1404.72C456.558 1440.15 423.551 1461.08 371.223 1467.52C355.204 1469.49 313.259 1465.91 285.887 1447.39C275.032 1440.05 246.44 1416 246.44 1392.65C246.44 1388.62 248.217 1373.67 257.71 1370.11C277.032 1362.86 300.499 1348.93 318.089 1325.02Z" fill="#34B4F7" stroke="black" stroke-width="31" stroke-linejoin="round"/>
<path d="M140.978 1282.36C150.639 1310.53 161.909 1329.05 189.281 1344.35C193.277 1346.58 195.975 1347.48 200.552 1347.57C205.432 1347.65 208.203 1346.41 212.628 1344.35C223.139 1339.45 225.615 1331.52 231.949 1321.8C244.025 1303.29 260.126 1289.31 275.422 1282.36C293.133 1274.31 315.485 1268.4 342.241 1266.26C382.493 1263.04 441.081 1280.16 504.861 1282.36C587.912 1285.22 635.789 1287.58 717.395 1271.89C802.441 1255.54 850.607 1239.97 926.708 1198.63C991.917 1163.21 1061.06 1089.95 1083.69 1044.06C1112.67 985.293 1121.53 986.098 1145.68 881.441C1165.74 794.51 1161.78 686.619 1161.78 686.619L1148.9 552.98C1148.9 552.98 1145.1 531.244 1132.8 504.677C1123.14 483.815 1107.04 462.01 1107.04 462.01L1057.93 371.039C1057.93 371.039 1065.89 353.324 1068.4 341.252C1071.47 326.464 1071.89 308.245 1070.01 302.61C1068.4 297.779 1065.98 286.558 1049.88 285.703C1039.69 285.163 1031.37 290.516 1028.14 300.194C1025.73 307.44 1028.14 314.685 1027.34 324.346C1026.46 334.932 1020.09 346.887 1020.09 346.887C1020.09 346.887 1017.1 324.243 1012.04 310.66C1007.33 298.007 1003.79 291.053 995.942 280.068C988.697 269.928 981.451 261.552 969.375 252.696C958.571 244.773 944.613 242.587 933.148 246.256C923.085 249.476 913.827 258.745 909.802 266.382C903.629 278.093 901.719 288.231 907.387 300.194C914.632 315.49 924.484 317.791 933.148 330.786C939.589 340.447 939.589 353.328 939.589 353.328C939.589 353.328 884.845 342.862 845.398 350.913C818.4 356.422 802.958 359.861 777.773 371.039C745.415 385.401 727.921 396.734 702.099 420.952C674.717 446.632 661.705 464.649 644.94 498.237C626.858 534.464 617.104 573.107 615.958 610.139C613.94 675.348 640.915 730.092 640.915 730.092L579.731 982.878C579.731 982.878 554.774 1023.94 491.98 1077.07C450.181 1112.44 395.374 1141.47 395.374 1141.47C395.374 1141.47 361.562 1106.86 326.14 1098.81C300.358 1092.95 284.277 1090.68 258.515 1095.58C241.61 1098.81 215.848 1105.25 193.306 1124.57C169.052 1145.36 156.116 1160.63 145.003 1190.58C136.938 1212.32 133.875 1261.64 140.978 1282.36Z" fill="#68C8F7" stroke="black" stroke-width="31" stroke-linejoin="round"/>
<path d="M347.876 811.401C343.274 820.37 344.224 827.292 346.266 837.163C351.097 860.51 356.873 869.429 368.003 887.881C379.542 907.012 387.883 916.93 404.23 932.159C422.096 948.803 433.632 957.243 455.753 967.581C478.211 978.077 492.326 981.518 516.937 984.487C541.548 987.457 555.405 988.638 578.926 982.877C618.374 973.217 664.261 962.751 678.752 956.311C698.231 947.653 709.58 940.464 722.225 923.304C733.496 908.008 743.731 890.297 745.572 880.636C748.792 863.73 750.659 845.148 748.792 833.943C745.572 814.622 740.773 797.222 727.055 778.394C715.911 763.099 700.988 749.193 678.752 739.752C669.897 735.992 641.634 726.717 618.374 731.701C573.291 741.362 396.984 788.055 364.782 796.106C359.147 797.514 351.941 803.48 347.876 811.401Z" fill="#0052CF" stroke="black" stroke-width="31" stroke-linejoin="round"/>
<circle cx="904.971" cy="611.749" r="111.902" fill="white" stroke="black" stroke-width="31" stroke-linejoin="round"/>
<path d="M1212.47 565.861C1181.69 565.861 1156.92 565.861 1121.32 565.861C1111.66 565.861 1077.25 579.142 1077.25 617.777C1077.25 653.997 1113.47 666.071 1121.32 666.071C1150.3 666.071 1175.67 666.071 1211.27 666.071C1225.15 666.071 1254.81 649.168 1255.94 617.777C1257.11 585.179 1228.77 565.861 1212.47 565.861Z" fill="#FFB300" stroke="black" stroke-width="31" stroke-linejoin="round"/>
<path d="M999.968 472.475C994.332 463.62 992.722 437.053 1002.38 427.392C1011.16 418.615 1020.01 409.749 1028.9 400.826C1057.56 372.068 1086.67 342.723 1115.21 313.88C1134.48 294.403 1153.49 275.155 1171.94 256.471C1179.19 249.135 1186.35 241.885 1193.4 234.743L1193.46 234.684C1211.13 216.783 1228.14 199.557 1244.18 183.326C1263.18 164.113 1280.83 146.294 1296.63 130.401C1319.7 107.209 1338.86 88.1184 1352.58 74.7801C1352.61 74.7548 1352.63 74.7298 1352.66 74.7051C1355.86 71.6762 1359.84 73.3159 1361.44 74.7801C1363.96 77.094 1363.65 80.5518 1361.98 83.5437C1361.81 83.8481 1361.63 84.1476 1361.44 84.4407C1349.13 102.857 1337.13 120.809 1325.4 138.343C1312.62 157.458 1300.16 176.076 1287.98 194.259C1269.74 221.465 1252.13 247.694 1234.97 273.151C1220.97 293.914 1207.28 314.162 1193.79 334.006C1172.23 365.745 1151.22 396.45 1130.39 426.572C1114.23 449.936 1098.18 472.949 1082.08 495.822C1077.55 502.262 1066.79 505.482 1059.54 506.287C1058.77 506.373 1058.04 506.458 1057.33 506.54C1051.41 507.226 1047.33 507.699 1041.03 506.287C1033.97 504.707 1025.37 498.239 1016.87 490.992C1009.43 484.635 1005.22 480.736 999.968 472.475Z" fill="#DBDBDB"/>
<path d="M1028.9 400.826L1130.39 426.572C1151.22 396.45 1172.23 365.745 1193.79 334.006C1163.1 326.147 1145.9 321.74 1115.21 313.88C1086.67 342.723 1057.56 372.068 1028.9 400.826Z" fill="#DBDBDB"/>
<path d="M1028.9 400.826C1020.01 409.749 1011.16 418.615 1002.38 427.392C992.722 437.053 994.332 463.62 999.968 472.475C1005.22 480.736 1009.43 484.635 1016.87 490.992C1025.37 498.239 1033.97 504.707 1041.03 506.287C1047.33 507.699 1051.41 507.226 1057.33 506.54C1058.04 506.458 1058.77 506.373 1059.54 506.287C1066.79 505.482 1077.55 502.262 1082.08 495.822C1098.18 472.949 1114.23 449.936 1130.39 426.572M1028.9 400.826C1057.56 372.068 1086.67 342.723 1115.21 313.88M1028.9 400.826L1130.39 426.572M1130.39 426.572C1151.22 396.45 1172.23 365.745 1193.79 334.006M1193.79 334.006C1207.28 314.162 1220.97 293.914 1234.97 273.151C1252.13 247.694 1269.74 221.465 1287.98 194.259C1300.16 176.076 1312.62 157.458 1325.4 138.343M1193.79 334.006C1163.1 326.147 1145.9 321.74 1115.21 313.88M1115.21 313.88C1134.48 294.403 1153.49 275.155 1171.94 256.471M1193.4 234.743C1186.35 241.885 1179.19 249.135 1171.94 256.471M1193.4 234.743L1193.46 234.684C1211.13 216.783 1228.14 199.557 1244.18 183.326M1193.4 234.743L1193.24 234.898C1186.24 241.99 1179.14 249.188 1171.94 256.471M1193.4 234.743C1211.09 216.821 1228.12 199.575 1244.18 183.326M1171.94 256.471L1244.18 183.326M1244.18 183.326C1263.18 164.113 1280.83 146.294 1296.63 130.401M1296.63 130.401C1319.7 107.209 1338.86 88.1184 1352.58 74.7801C1352.61 74.7548 1352.63 74.7298 1352.66 74.7051M1296.63 130.401L1352.66 74.7051M1352.66 74.7051C1355.86 71.6762 1359.84 73.3159 1361.44 74.7801C1363.96 77.094 1363.65 80.5518 1361.98 83.5437M1352.66 74.7051L1361.98 83.5437M1361.98 83.5437C1361.81 83.8481 1361.63 84.1476 1361.44 84.4407C1349.13 102.857 1337.13 120.809 1325.4 138.343M1361.98 83.5437L1325.4 138.343" stroke="black" stroke-width="31" stroke-linejoin="round"/>
</svg>
